<svg width="1440" height="1024" viewBox="0 0 1440 1024" fill="#f9f9f9" xmlns="http://www.w3.org/2000/svg">
    <g>
        <rect width="1440" height="1024" fill="white"/>
        <g>
            <path d="M499.514 821.008L475.395 834.933L482.258 846.821L506.378 832.895L499.514 821.008Z"/>
            <path d="M455.587 842.058L457.26 841.092L467.381 858.622L465.708 859.588C463.773 860.702 461.301 860.04 460.182 858.107L454.106 847.583C452.992 845.648 453.655 843.176 455.587 842.058Z"
                  />
            <path d="M459.543 829.891L466.189 826.055L485.344 859.234L478.699 863.07C476.764 864.184 474.292 863.523 473.173 861.59L458.063 835.417C456.948 833.482 457.611 831.01 459.543 829.891Z"
                  />
            <path d="M508.599 806.239L523.709 832.412C524.824 834.347 524.162 836.82 522.229 837.938L515.583 841.775L496.427 808.596L503.073 804.759C505.008 803.645 507.48 804.307 508.599 806.239Z"
                  />
            <path d="M521.115 808.898L527.19 819.421C528.305 821.356 527.642 823.828 525.71 824.947L524.037 825.913L513.916 808.383L515.589 807.417C517.524 806.302 519.996 806.965 521.115 808.898Z"
                  />
        </g>
        <g>
            <path d="M1347.09 244.777L1301.88 270.88L1314.75 293.163L1359.96 267.06L1347.09 244.777Z"/>
            <path d="M1264.75 284.237L1267.89 282.426L1286.86 315.286L1283.72 317.097C1280.1 319.185 1275.46 317.944 1273.37 314.32L1261.98 294.593C1259.89 290.966 1261.13 286.332 1264.75 284.237Z"
                  />
            <path d="M1272.17 261.43L1284.62 254.238L1320.53 316.432L1308.08 323.624C1304.45 325.712 1299.81 324.471 1297.72 320.848L1269.39 271.788C1267.3 268.161 1268.55 263.527 1272.17 261.43Z"
                  />
            <path d="M1364.12 217.094L1392.45 266.154C1394.54 269.781 1393.29 274.416 1389.67 276.512L1377.21 283.704L1341.31 221.51L1353.76 214.319C1357.39 212.23 1362.03 213.471 1364.12 217.094Z"/>
            <path d="M1387.58 222.076L1398.97 241.802C1401.06 245.43 1399.82 250.064 1396.2 252.161L1393.06 253.972L1374.09 221.112L1377.22 219.301C1380.85 217.211 1385.49 218.454 1387.58 222.076Z"/>
        </g>
        <g>
            <path d="M991.374 498.745C990.642 496.976 988.585 496.072 986.756 496.831L985.66 497.28L988.371 503.816L989.434 503.353C991.238 502.607 992.126 500.555 991.374 498.745Z"/>
            <path d="M971.957 502.906L971.379 503.144C970.875 503.354 970.42 503.682 970.062 504.095L966.973 507.659C966.681 507.997 966.604 508.471 966.775 508.883C966.942 509.285 967.321 509.573 967.781 509.608L972.487 509.94C973.032 509.978 973.585 509.888 974.087 509.681L974.668 509.443L971.957 502.906Z"/>
            <path d="M983.479 498.176L974.137 502.011L976.848 508.547L986.19 504.711L983.479 498.176Z"/>
            <path d="M987.464 485.805L985.454 479.962C985.263 479.41 984.91 478.96 984.494 478.57L981.313 484.687L987.524 487.917C987.717 487.228 987.7 486.488 987.464 485.805Z"/>
            <path d="M968.281 502.551C968.875 501.866 969.633 501.319 970.472 500.968L983.632 495.565L986.503 490.044L979.18 486.236C978.601 485.935 978.377 485.224 978.678 484.645L982.486 477.322L966.793 469.161C965.062 468.261 962.922 468.937 962.022 470.668L946.716 500.101C945.816 501.832 946.492 503.972 948.223 504.872L969.147 515.752C970.877 516.652 973.018 515.977 973.918 514.246L975.204 511.773L974.984 511.863C974.152 512.208 973.232 512.356 972.326 512.294L967.616 511.962C966.29 511.866 965.122 511.048 964.598 509.789C964.082 508.543 964.308 507.136 965.192 506.116L968.281 502.551ZM965.621 476.527L976.083 481.967C976.661 482.268 976.886 482.979 976.585 483.557C976.285 484.136 975.573 484.36 974.995 484.06L964.533 478.619C963.955 478.318 963.73 477.607 964.031 477.029C964.332 476.451 965.043 476.226 965.621 476.527ZM962.321 482.874L979.06 491.578C979.638 491.879 979.863 492.59 979.562 493.169C979.261 493.747 978.55 493.971 977.972 493.671L961.232 484.966C960.654 484.665 960.43 483.954 960.73 483.376C961.031 482.797 961.742 482.573 962.321 482.874ZM963.073 501.873L954.704 497.52C954.126 497.22 953.901 496.508 954.202 495.93C954.502 495.352 955.214 495.127 955.792 495.428L964.162 499.78C964.74 500.081 964.964 500.792 964.664 501.371C964.363 501.949 963.652 502.173 963.073 501.873ZM957.968 491.243C957.39 490.942 957.165 490.231 957.466 489.653C957.767 489.075 958.478 488.85 959.056 489.151L971.611 495.679C972.189 495.98 972.413 496.691 972.113 497.27C971.812 497.848 971.101 498.072 970.523 497.772L957.968 491.243Z"/>
        </g>
        <g>
            <path d="M482.28 280.825L480.013 282.23L477.204 277.697L472.671 280.506L475.48 285.04L457.347 296.278L454.538 291.745L450.004 294.555L452.814 299.088L450.548 300.493C448.032 302.052 447.301 305.329 448.847 307.822L468.492 339.568C470.037 342.062 473.319 342.851 475.835 341.292L507.567 321.624C510.061 320.079 510.836 316.774 509.291 314.281L489.623 282.549C488.078 280.055 484.773 279.28 482.28 280.825ZM504.758 317.091L473.025 336.759L457.572 311.826L489.304 292.158L504.758 317.091ZM464.915 313.55L476.248 306.525L483.272 317.858L471.939 324.883L464.915 313.55Z"/>
        </g>
        <g>
            <path d="M134.28 623.825L132.013 625.23L129.204 620.697L124.671 623.506L127.48 628.04L109.347 639.278L106.538 634.745L102.004 637.555L104.814 642.088L102.548 643.493C100.032 645.052 99.3014 648.329 100.847 650.822L120.492 682.568C122.037 685.062 125.319 685.851 127.835 684.292L159.567 664.624C162.061 663.079 162.836 659.774 161.291 657.281L141.623 625.549C140.078 623.055 136.773 622.28 134.28 623.825ZM156.758 660.091L125.025 679.759L109.572 654.826L141.304 635.158L156.758 660.091ZM116.915 656.55L128.248 649.525L135.272 660.858L123.939 667.883L116.915 656.55Z"/>
        </g>
        <path d="M889.984 881.796L898.203 873.577L894.976 870.35C894.32 869.693 893.137 869.693 892.48 870.35L886.757 876.073C886.429 876.401 886.24 876.857 886.24 877.321C886.24 877.785 886.429 878.241 886.757 878.569L889.984 881.796Z"/>
        <path d="M887.489 888.553C887.489 889.017 887.677 889.472 888.006 889.801L892.761 894.375L903.712 886.203L911.441 876.863L906.208 871.598C905.552 870.941 904.369 870.941 903.712 871.598L888.006 887.305C887.677 887.633 887.489 888.088 887.489 888.553Z"/>
        <path d="M888.736 897.288C888.736 897.753 888.925 898.208 889.253 898.536L891.656 900.94C893.315 900.388 895.057 900.028 896.862 899.879L918.171 878.569C918.499 878.241 918.687 877.785 918.687 877.321C918.687 876.857 918.499 876.401 918.171 876.073L914.943 872.846C914.287 872.189 913.104 872.189 912.447 872.846L889.253 896.04C888.925 896.369 888.736 896.824 888.736 897.288Z"/>
        <path d="M933.147 908.519L912.448 887.82L904.229 896.039L914.186 905.997C914.455 906.251 914.714 906.512 914.97 906.781L924.928 916.738L933.147 908.519Z"/>
        <path d="M949.887 916.007C949.887 915.542 949.698 915.087 949.37 914.759L947.391 912.78L942.964 908.385L924.284 925.898L929.188 930.982L931.168 932.961C931.824 933.618 933.007 933.618 933.663 932.961L949.37 917.255C949.698 916.926 949.887 916.471 949.887 916.007Z"/>
        <path d="M948.639 907.272C948.639 906.808 948.45 906.352 948.122 906.024L944.895 902.797C944.239 902.141 943.055 902.141 942.399 902.797L921.09 924.107C920.942 925.912 920.581 927.653 920.029 929.312L922.432 931.715C923.088 932.371 924.271 932.371 924.928 931.715L948.122 908.52C948.45 908.192 948.639 907.736 948.639 907.272Z"/>
        <path d="M950.617 925.991L947.39 922.764L939.171 930.983L942.398 934.21C943.055 934.866 944.238 934.866 944.894 934.21L950.617 928.487C950.946 928.159 951.134 927.703 951.134 927.239C951.134 926.775 950.946 926.319 950.617 925.991Z"/>
        <path d="M912.411 907.75C908.833 904.37 904.021 902.279 898.721 902.279C887.711 902.279 878.753 911.237 878.753 922.247C878.753 933.256 887.711 942.214 898.721 942.214C909.73 942.214 918.688 933.256 918.688 922.247C918.688 916.947 916.598 912.134 913.217 908.557L912.411 907.75ZM898.721 938.47C889.76 938.47 882.497 931.207 882.497 922.247C882.497 913.286 889.76 906.023 898.721 906.023C907.681 906.023 914.944 913.286 914.944 922.247C914.944 931.207 907.681 938.47 898.721 938.47Z"/>
        <path d="M898.721 930.983C903.545 930.983 907.456 927.072 907.456 922.247C907.456 917.423 903.545 913.512 898.721 913.512C893.896 913.512 889.985 917.423 889.985 922.247C889.985 927.072 893.896 930.983 898.721 930.983Z"/>
        <path d="M80.8069 107.997L91.3597 97.4437L87.2161 93.3001C86.3733 92.4573 84.8543 92.4573 84.0115 93.3001L76.6633 100.648C76.2419 101.07 75.9999 101.655 75.9999 102.251C75.9999 102.847 76.2419 103.432 76.6633 103.853L80.8069 107.997Z"/>
        <path d="M77.6031 116.673C77.6031 117.269 77.8451 117.854 78.2665 118.275L84.3723 124.149L98.4333 113.656L108.357 101.663L101.638 94.9036C100.795 94.0608 99.2761 94.0608 98.4333 94.9036L78.2665 115.07C77.8451 115.492 77.6031 116.077 77.6031 116.673Z"/>
        <path d="M79.2045 127.888C79.2045 128.484 79.4465 129.069 79.8679 129.49L82.9539 132.577C85.0834 131.868 87.3203 131.405 89.6372 131.215L116.997 103.853C117.418 103.432 117.66 102.847 117.66 102.251C117.66 101.655 117.418 101.07 116.997 100.649L112.853 96.5052C112.01 95.6623 110.491 95.6623 109.649 96.5052L79.8679 126.286C79.4465 126.707 79.2045 127.292 79.2045 127.888Z"
              fill="#F9F9F9"/>
        <path d="M136.225 142.307L109.649 115.73L99.0963 126.283L111.881 139.068C112.226 139.395 112.559 139.73 112.887 140.074L125.672 152.859L136.225 142.307Z"/>
        <path d="M157.719 151.921C157.719 151.325 157.477 150.74 157.056 150.319L154.514 147.777L148.831 142.135L124.846 164.62L131.143 171.149L133.684 173.69C134.527 174.533 136.046 174.533 136.889 173.69L157.056 153.523C157.477 153.102 157.719 152.517 157.719 151.921Z"/>
        <path d="M156.117 140.708C156.117 140.112 155.875 139.527 155.453 139.106L151.31 134.962C150.467 134.119 148.948 134.119 148.105 134.962L120.745 162.323C120.555 164.64 120.092 166.876 119.383 169.007L122.468 172.091C123.311 172.934 124.83 172.934 125.673 172.091L155.453 142.31C155.875 141.889 156.117 141.304 156.117 140.708Z"/>
        <path d="M158.657 164.741L154.513 160.598L143.961 171.151L148.104 175.294C148.947 176.137 150.466 176.137 151.309 175.294L158.657 167.946C159.078 167.524 159.32 166.94 159.32 166.344C159.32 165.748 159.078 165.163 158.657 164.741Z"/>
        <path d="M109.601 141.321C105.007 136.981 98.8289 134.297 92.0239 134.297C77.8882 134.297 66.3868 145.798 66.3868 159.934C66.3868 174.07 77.8882 185.571 92.0239 185.571C106.16 185.571 117.661 174.07 117.661 159.934C117.661 153.129 114.977 146.95 110.636 142.357L109.601 141.321ZM92.0239 180.764C80.5192 180.764 71.1937 171.439 71.1937 159.934C71.1937 148.429 80.5192 139.104 92.0239 139.104C103.529 139.104 112.854 148.429 112.854 159.934C112.854 171.439 103.529 180.764 92.0239 180.764Z"/>
        <path d="M92.024 171.151C98.2185 171.151 103.24 166.13 103.24 159.935C103.24 153.74 98.2185 148.719 92.024 148.719C85.8294 148.719 80.8077 153.74 80.8077 159.935C80.8077 166.13 85.8294 171.151 92.024 171.151Z"/>
        <path d="M935.311 160L926.209 176.114C925.574 179.71 927.405 183.477 930.331 185.804C934.994 189.522 941.827 188.214 944.871 183.166L952.359 169.841L935.311 160Z"/>
        <path d="M954.889 199.593H951.62L951.608 199.621V199.593H949.996H949.167L947.355 195.075L940.109 197.017L939.26 193.848L946.125 192.008L944.636 188.297C940.007 191.996 933.212 192.313 928.287 188.37C925.285 185.983 923.276 182.453 922.893 178.77C920.289 181.041 918.036 183.709 916.305 186.705L914.269 190.232L941.85 206.156H961.451C961.451 202.536 958.508 199.593 954.889 199.593Z"/>
        <path d="M940.973 209.437L912.629 193.074L910.988 195.917C910.551 196.675 910.435 197.557 910.663 198.405C910.89 199.254 911.433 199.962 912.19 200.398L935.788 214.023C938.028 215.316 940.577 216 943.158 216H958.17C959.979 216 961.452 214.527 961.452 212.719V209.437H940.973Z"/>
    </g>
</svg>
