<svg width="63" height="63" viewBox="0 0 63 63" fill="none" xmlns="http://www.w3.org/2000/svg">
    <path d="M42.001 49.874V45.499C42.001 43.1784 41.116 40.9528 39.5407 39.3118C37.9654 37.6709 35.8288 36.749 33.601 36.749H18.901C16.6732 36.749 14.5366 37.6709 12.9613 39.3118C11.386 40.9528 10.501 43.1784 10.501 45.499V49.874" stroke="currentColor" stroke-width="3" stroke-linecap="round" stroke-linejoin="round" />
    <path d="M26.2495 28.874C30.5988 28.874 34.1245 25.3483 34.1245 20.999C34.1245 16.6498 30.5988 13.124 26.2495 13.124C21.9003 13.124 18.3745 16.6498 18.3745 20.999C18.3745 25.3483 21.9003 28.874 26.2495 28.874Z" stroke="currentColor" stroke-width="3" stroke-linecap="round" stroke-linejoin="round" />
    <path d="M41.9995 26.25L46.3745 31.5L55.1245 21" stroke="currentColor" stroke-width="3" stroke-linecap="round" stroke-linejoin="round" />
</svg>