<svg width="60" height="60" viewBox="0 0 60 60" fill="none" xmlns="http://www.w3.org/2000/svg">
    <g fill="currentColor">
        <path d="M29.2615 0L19.51 17.2654C18.8291 21.1179 20.7906 25.1538 23.9264 27.647C28.9222 31.6308 36.2437 30.2295 39.5048 24.821L47.5278 10.5435L29.2615 0Z" />
        <path d="M50.238 42.4219H46.7361L46.7224 42.4518V42.4219H44.9955H44.1081L42.1661 37.5813L34.4024 39.6616L33.4925 36.2661L40.8478 34.2952L39.2526 30.3187C34.2934 34.282 27.0125 34.6213 21.7362 30.397C18.5192 27.8401 16.3677 24.0575 15.9569 20.1108C13.1668 22.5444 10.7526 25.4029 8.89861 28.6135L6.71729 32.392L36.2682 49.4532H57.2693C57.2693 45.5753 54.1159 42.4219 50.238 42.4219Z" />
        <path d="M35.3278 52.9685L4.95963 35.4365L3.20135 38.482C2.73272 39.294 2.60908 40.2398 2.85283 41.1479C3.09658 42.0577 3.67854 42.8164 4.48877 43.2834L29.7728 57.8814C32.1727 59.2667 34.9037 59.9997 37.6692 59.9997H53.7539C55.692 59.9997 57.2696 58.4221 57.2696 56.4841V52.9685H35.3278Z" />
    </g>
</svg>