<svg width="39" height="22" viewBox="0 0 39 22" fill="none" xmlns="http://www.w3.org/2000/svg">
<path d="M17.209 10.2251L17.691 2.52377H17.6621L15.0165 10.2237L12.1604 10.2223L16.4568 0.00430202L19.9186 0.0057354L20.0215 10.2266L17.209 10.2251Z" fill="#2E2F31"/>
<rect x="15.0967" y="5.92285" width="3.77419" height="2.11538" fill="#2E2F31"/>
<path d="M13.6279 0.00334717L13.1862 2.17901L9.76753 2.17757L9.41301 3.92336L12.6151 3.92528L12.1909 6.01487L8.98834 6.01295L8.57599 8.04564L12.1241 8.04756L11.6823 10.2227L5.45117 10.2194L7.52664 0L13.6279 0.00334717Z" fill="#2E2F31"/>
<path d="M6.69181 11.6152C7.20148 11.6152 7.62299 11.6822 7.95634 11.816C8.28969 11.9499 8.54468 12.1386 8.72131 12.3822C8.90208 12.6369 9.01086 12.9364 9.03602 13.2486C9.06752 13.6127 9.04419 13.9795 8.96682 14.3365C8.82716 15.0238 8.57533 15.5773 8.21133 15.9971C7.84733 16.417 7.34793 16.6744 6.71314 16.7694L6.70745 16.7976C7.3394 16.8553 7.73626 17.0797 7.89804 17.4709C8.05982 17.862 8.07056 18.4014 7.93027 19.089L7.75301 19.9621L7.66865 20.3776C7.63973 20.5211 7.61651 20.6564 7.6004 20.7855C7.58474 20.9019 7.5754 21.0191 7.57243 21.1365C7.56802 21.2183 7.57568 21.3003 7.59518 21.3799C7.62172 21.4372 7.64906 21.4922 7.67718 21.5448C7.71557 21.608 7.76965 21.6599 7.83406 21.6955L7.80515 21.8389H4.94906C4.90628 21.6853 4.88756 21.5259 4.89361 21.3665C4.89662 21.1845 4.90943 21.0029 4.932 20.8223C4.95443 20.6413 4.98018 20.4672 5.00925 20.3002C5.03816 20.1338 5.06376 19.9975 5.08509 19.8923L5.22443 19.2052C5.27548 18.9689 5.30953 18.7292 5.32633 18.4879C5.33613 18.2966 5.31622 18.1463 5.26661 18.037C5.22299 17.9339 5.14145 17.8518 5.03911 17.808C4.91181 17.7606 4.77659 17.7387 4.64099 17.7434H3.93336L3.10204 21.8336H0.418945L2.49395 11.6143L6.69181 11.6152ZM4.83341 15.9369C5.21795 15.9369 5.52445 15.8253 5.7529 15.6022C5.98135 15.379 6.13222 15.0856 6.20553 14.7219C6.29274 14.2925 6.26588 13.9871 6.12496 13.8057C5.98403 13.6243 5.7115 13.5335 5.30737 13.5331H4.78602L4.29784 15.9378L4.83341 15.9369Z" fill="#2E2F31"/>
<path d="M13.3553 11.6196L11.2803 21.839L8.59766 21.8376L10.6727 11.6182L13.3553 11.6196Z" fill="#2E2F31"/>
<path d="M20.5003 16.289L19.3727 21.8425H17.5551L17.6807 20.9411H17.6532C17.5299 21.1518 17.3675 21.3365 17.175 21.4853C16.9938 21.6245 16.7915 21.7332 16.5759 21.8071C16.3602 21.8793 16.1379 21.9296 15.9124 21.9572C15.6821 21.9856 15.4504 21.9998 15.2185 21.9998C14.5357 21.9998 14.02 21.8874 13.6715 21.6627C13.3229 21.438 13.0921 21.1007 12.979 20.6509C12.8681 20.2027 12.8531 19.6493 12.934 18.9907C13.0149 18.3321 13.1413 17.5783 13.3132 16.7294C13.4641 15.9571 13.6693 15.1965 13.9269 14.4534C14.1617 13.7954 14.4663 13.2422 14.8407 12.7936C15.2143 12.3461 15.6887 11.9954 16.2242 11.7708C16.7715 11.5372 17.4395 11.4207 18.2281 11.4213C18.6577 11.4152 19.0855 11.4781 19.4955 11.6078C19.8485 11.7184 20.1637 11.9268 20.405 12.2093C20.6373 12.4867 20.791 12.8424 20.8662 13.2766C20.9414 13.7108 20.9161 14.238 20.7904 14.8584H18.194C18.3046 14.3142 18.3362 13.9181 18.2888 13.6701C18.2525 13.3743 18.0758 13.2261 17.7589 13.2254C17.561 13.2186 17.3659 13.2735 17.2001 13.3827C17.0491 13.4876 16.9151 13.6736 16.7982 13.9408C16.6548 14.2908 16.5405 14.6523 16.4565 15.0214C16.3449 15.475 16.2195 16.0452 16.0801 16.7318C15.9408 17.4185 15.8346 17.9888 15.7616 18.4427C15.6886 18.8957 15.657 19.2558 15.6668 19.5229C15.6749 19.7902 15.7285 19.9762 15.8275 20.0814C15.9266 20.1866 16.0768 20.2387 16.2787 20.2387C16.4165 20.2402 16.553 20.211 16.6783 20.1531C16.8198 20.0782 16.9392 19.967 17.0247 19.8308C17.1568 19.6259 17.2622 19.4048 17.3385 19.1729C17.458 18.8197 17.553 18.4587 17.6229 18.0922H16.6726L17.0371 16.2871L20.5003 16.289Z" fill="#2E2F31"/>
<path d="M25.2268 11.6255L24.4657 15.3757L26.1098 15.3762L26.8715 11.6259L29.5541 11.6274L27.4791 21.8468L24.7965 21.8453L25.6506 17.6375L24.0064 17.6365L23.1518 21.8448L20.4688 21.8434L22.5442 11.624L25.2268 11.6255Z" fill="#2E2F31"/>
<path d="M29.7295 13.8897L30.1888 11.6279L36.8811 11.6313L36.4223 13.893L34.4027 13.8921L32.787 21.8497L30.1039 21.8483L31.7197 13.8906L29.7295 13.8897Z" fill="#2E2F31"/>
<path d="M20.9668 2.26173L21.4261 0L28.1184 0.00334752L27.6596 2.26508L25.64 2.26412L24.0243 10.2218L21.3412 10.2203L22.957 2.26269L20.9668 2.26173Z" fill="#2E2F31"/>
<path d="M34.7109 2.40212C34.7109 2.68272 34.6284 2.95701 34.4739 3.19032C34.3194 3.42363 34.0998 3.60547 33.8428 3.71285C33.5859 3.82023 33.3031 3.84832 33.0303 3.79358C32.7576 3.73884 32.507 3.60372 32.3103 3.40531C32.1137 3.2069 31.9797 2.9541 31.9255 2.6789C31.8712 2.40369 31.899 2.11844 32.0055 1.8592C32.1119 1.59996 32.2922 1.37839 32.5234 1.2225C32.7547 1.06661 33.0266 0.983398 33.3047 0.983398C33.6776 0.983398 34.0353 1.13287 34.299 1.39893C34.5628 1.66499 34.7109 2.02585 34.7109 2.40212Z" fill="#90BF45"/>
<path d="M31.0601 10.2321C31.0601 10.2321 30.8231 6.92983 29.2832 4.55191L29.6349 2.65263C29.6349 2.65263 31.1862 4.07183 32.1104 6.39572C32.1104 6.39572 34.8048 3.20443 38.6847 2.08887L38.3804 3.68834C38.3804 3.68834 35.5509 4.65567 31.0596 10.2316" fill="#90BF45"/>
<path d="M6.69181 11.6152C7.20148 11.6152 7.62299 11.6822 7.95634 11.816C8.28969 11.9499 8.54468 12.1386 8.72131 12.3822C8.90208 12.6369 9.01086 12.9364 9.03602 13.2486C9.06752 13.6127 9.04419 13.9795 8.96682 14.3365C8.82716 15.0238 8.57533 15.5773 8.21133 15.9971C7.84733 16.417 7.34793 16.6744 6.71314 16.7694L6.70745 16.7976C7.3394 16.8553 7.73626 17.0797 7.89804 17.4709C8.05982 17.862 8.07056 18.4014 7.93027 19.089L7.75301 19.9621L7.66865 20.3776C7.63973 20.5211 7.61651 20.6564 7.6004 20.7855C7.58474 20.9019 7.5754 21.0191 7.57243 21.1365C7.56802 21.2183 7.57568 21.3003 7.59518 21.3799C7.62172 21.4373 7.64906 21.4922 7.67718 21.5448C7.71557 21.608 7.76965 21.6599 7.83406 21.6955L7.80515 21.8389H4.94906C4.90628 21.6853 4.88756 21.5259 4.89361 21.3665C4.89662 21.1845 4.90943 21.0029 4.932 20.8223C4.95443 20.6413 4.98018 20.4672 5.00925 20.3002C5.03816 20.1338 5.06376 19.9975 5.08509 19.8923L5.22443 19.2052C5.27548 18.9689 5.30953 18.7292 5.32633 18.4879C5.33613 18.2966 5.31622 18.1463 5.26661 18.037C5.22299 17.9339 5.14145 17.8518 5.03911 17.808C4.91181 17.7606 4.77659 17.7387 4.64099 17.7434H3.93336L3.10204 21.8337H0.418945L2.49395 11.6143L6.69181 11.6152ZM4.83341 15.9369C5.21795 15.9369 5.52445 15.8253 5.7529 15.6022C5.98135 15.379 6.13222 15.0856 6.20553 14.7219C6.29274 14.2925 6.26588 13.9871 6.12496 13.8057C5.98403 13.6243 5.7115 13.5335 5.30737 13.5331H4.78602L4.29784 15.9378L4.83341 15.9369Z" fill="#2E2F31"/>
<path d="M13.3553 11.6196L11.2803 21.839L8.59766 21.8376L10.6727 11.6182L13.3553 11.6196Z" fill="#2E2F31"/>
<path d="M20.5003 16.289L19.3727 21.8425H17.5551L17.6807 20.9411H17.6532C17.5299 21.1518 17.3675 21.3365 17.175 21.4853C16.9938 21.6245 16.7915 21.7332 16.5759 21.8071C16.3602 21.8793 16.1379 21.9296 15.9124 21.9572C15.6821 21.9856 15.4504 21.9998 15.2185 21.9998C14.5357 21.9998 14.02 21.8874 13.6715 21.6627C13.3229 21.438 13.0921 21.1007 12.979 20.6509C12.8681 20.2027 12.8531 19.6493 12.934 18.9907C13.0149 18.3321 13.1413 17.5783 13.3132 16.7294C13.4641 15.9571 13.6693 15.1965 13.9269 14.4534C14.1617 13.7954 14.4663 13.2422 14.8407 12.7936C15.2143 12.3461 15.6887 11.9954 16.2242 11.7708C16.7715 11.5372 17.4395 11.4207 18.2281 11.4213C18.6577 11.4152 19.0855 11.4781 19.4955 11.6078C19.8485 11.7184 20.1637 11.9268 20.405 12.2093C20.6373 12.4867 20.791 12.8424 20.8662 13.2766C20.9414 13.7108 20.9161 14.238 20.7904 14.8584H18.194C18.3046 14.3142 18.3362 13.9181 18.2888 13.6701C18.2525 13.3743 18.0758 13.2261 17.7589 13.2254C17.561 13.2186 17.3659 13.2735 17.2001 13.3827C17.0491 13.4876 16.9151 13.6736 16.7982 13.9408C16.6548 14.2908 16.5405 14.6523 16.4565 15.0214C16.3449 15.475 16.2195 16.0452 16.0801 16.7318C15.9408 17.4185 15.8346 17.9888 15.7616 18.4427C15.6886 18.8957 15.657 19.2558 15.6668 19.5229C15.6749 19.7902 15.7285 19.9762 15.8275 20.0814C15.9266 20.1866 16.0768 20.2387 16.2787 20.2387C16.4165 20.2402 16.553 20.211 16.6783 20.1531C16.8198 20.0782 16.9392 19.967 17.0247 19.8308C17.1568 19.6259 17.2622 19.4048 17.3385 19.1729C17.458 18.8197 17.553 18.4586 17.6229 18.0922H16.6726L17.0371 16.2871L20.5003 16.289Z" fill="#2E2F31"/>
<path d="M25.2268 11.6255L24.4657 15.3757L26.1098 15.3762L26.8715 11.6259L29.5541 11.6274L27.4791 21.8468L24.7965 21.8453L25.6506 17.6375L24.0064 17.6365L23.1518 21.8449L20.4688 21.8434L22.5442 11.624L25.2268 11.6255Z" fill="#2E2F31"/>
<path d="M29.7295 13.8897L30.1888 11.6279L36.8811 11.6313L36.4223 13.893L34.4027 13.8921L32.787 21.8497L30.1039 21.8483L31.7197 13.8906L29.7295 13.8897Z" fill="#2E2F31"/>
<path d="M20.9668 2.26173L21.4261 0L28.1184 0.00334752L27.6596 2.26508L25.64 2.26412L24.0243 10.2218L21.3412 10.2203L22.957 2.26269L20.9668 2.26173Z" fill="#2E2F31"/>
<path d="M34.7109 2.40212C34.7109 2.68272 34.6284 2.95701 34.4739 3.19032C34.3194 3.42363 34.0998 3.60547 33.8428 3.71285C33.5859 3.82023 33.3031 3.84832 33.0303 3.79358C32.7576 3.73884 32.507 3.60372 32.3103 3.40531C32.1137 3.2069 31.9797 2.9541 31.9255 2.6789C31.8712 2.40369 31.899 2.11844 32.0055 1.8592C32.1119 1.59996 32.2922 1.37839 32.5234 1.2225C32.7547 1.06661 33.0266 0.983398 33.3047 0.983398C33.6776 0.983398 34.0353 1.13287 34.299 1.39893C34.5628 1.66499 34.7109 2.02585 34.7109 2.40212Z" fill="#90BF45"/>
<path d="M31.0601 10.2321C31.0601 10.2321 30.8231 6.92983 29.2832 4.55191L29.6349 2.65263C29.6349 2.65263 31.1862 4.07183 32.1104 6.39572C32.1104 6.39572 34.8048 3.20443 38.6847 2.08887L38.3804 3.68834C38.3804 3.68834 35.5509 4.65567 31.0596 10.2316" fill="#90BF45"/>
</svg>
