<svg width="891" height="513" viewBox="0 0 891 513" fill="none" xmlns="http://www.w3.org/2000/svg">
<g fill="currentColor">
    <path d="M301.395 5.28673L291.109 55.501L211.506 55.4679L203.251 95.7607L277.811 95.8049L267.933 144.033L193.362 143.989L183.761 190.903L266.377 190.947L256.092 241.15L111 241.073L159.327 5.20947L301.395 5.28673Z"/>
    <path d="M146.063 273.089C157.93 273.089 167.745 274.634 175.507 277.724C183.269 280.814 189.207 285.17 193.319 290.791C197.529 296.67 200.061 303.582 200.647 310.789C201.381 319.191 200.838 327.656 199.036 335.896C195.784 351.758 189.92 364.534 181.445 374.224C172.969 383.914 161.341 389.855 146.559 392.047L146.427 392.698C161.142 394.03 170.383 399.21 174.15 408.237C177.917 417.265 178.167 429.714 174.9 445.584L170.773 465.736L168.808 475.326C168.135 478.637 167.594 481.76 167.219 484.74C166.854 487.426 166.637 490.13 166.568 492.84C166.465 494.729 166.644 496.622 167.098 498.458C167.716 499.782 168.352 501.051 169.007 502.265C169.901 503.722 171.16 504.921 172.66 505.741L171.987 509.052H105.483C104.487 505.507 104.051 501.828 104.192 498.149C104.262 493.949 104.56 489.757 105.086 485.589C105.608 481.41 106.208 477.393 106.885 473.538C107.558 469.697 108.154 466.552 108.65 464.124L111.895 448.265C113.084 442.812 113.877 437.279 114.268 431.711C114.496 427.297 114.032 423.828 112.877 421.304C111.861 418.923 109.963 417.029 107.58 416.018C104.616 414.925 101.467 414.419 98.3096 414.528H81.8327L62.4754 508.931H0L48.3161 273.067L146.063 273.089ZM102.79 372.833C111.744 372.833 118.881 370.258 124.2 365.108C129.52 359.958 133.033 353.186 134.74 344.791C136.77 334.88 136.145 327.832 132.864 323.646C129.582 319.459 123.237 317.362 113.826 317.355H101.687L90.3195 372.856L102.79 372.833Z"/>
    <path d="M301.23 273.178L252.914 509.041L190.45 509.008L238.766 273.145L301.23 273.178Z"/>
    <path d="M467.578 380.956L441.323 509.129H398.999L401.924 488.326H401.284C398.412 493.188 394.631 497.452 390.148 500.885C385.93 504.099 381.219 506.607 376.199 508.313C371.176 509.979 366.001 511.14 360.748 511.778C355.387 512.432 349.992 512.76 344.591 512.76C328.692 512.76 316.684 510.167 308.569 504.98C300.454 499.793 295.079 492.009 292.446 481.627C289.863 471.283 289.514 458.51 291.397 443.31C293.281 428.11 296.224 410.713 300.226 391.12C303.742 373.294 308.518 355.739 314.518 338.588C319.984 323.403 327.077 310.634 335.795 300.282C344.494 289.953 355.54 281.859 368.01 276.676C380.753 271.283 396.306 268.594 414.67 268.608C424.673 268.467 434.635 269.92 444.181 272.913C452.402 275.465 459.74 280.276 465.359 286.796C470.767 293.197 474.346 301.408 476.097 311.429C477.848 321.449 477.26 333.619 474.332 347.936H413.876C416.451 335.377 417.187 326.235 416.083 320.511C415.237 313.684 411.124 310.262 403.745 310.248C399.137 310.09 394.593 311.358 390.733 313.879C387.216 316.299 384.097 320.592 381.375 326.758C378.035 334.837 375.374 343.179 373.417 351.699C370.82 362.169 367.899 375.328 364.655 391.176C361.41 407.023 358.938 420.186 357.239 430.663C355.539 441.118 354.803 449.428 355.031 455.593C355.219 461.762 356.466 466.055 358.773 468.483C361.079 470.911 364.578 472.114 369.279 472.114C372.488 472.149 375.665 471.475 378.582 470.139C381.877 468.409 384.659 465.844 386.65 462.701C389.724 457.972 392.179 452.868 393.956 447.515C396.738 439.365 398.951 431.03 400.577 422.573H378.45L386.937 380.912L467.578 380.956Z" />
    <path d="M577.641 273.321L559.917 359.877L598.201 359.888L615.936 273.332L678.4 273.365L630.084 509.229L567.62 509.196L587.507 412.078L549.223 412.056L529.325 509.185L466.849 509.152L515.176 273.288L577.641 273.321Z" />
    <path d="M682.484 325.577L693.178 273.376L849.008 273.453L838.325 325.654L791.3 325.632L753.678 509.295L691.202 509.262L728.824 325.599L682.484 325.577Z"/>
    <path d="M521 54L482.5 240.5H544.5L582.5 54H629.5L641.5 0.5H485.5L475 54H521Z"/>
    <path d="M264.5 240.5L371.5 1H450L458 240.5H392.5L394 197.5H344.5L329 240.5H264.5ZM361.5 152H398L401.5 47L361.5 152Z"/>
</g>
<path d="M798.484 60.4346C798.484 66.9107 796.564 73.2415 792.966 78.6262C789.368 84.011 784.254 88.2079 778.271 90.6862C772.288 93.1645 765.704 93.813 759.352 92.5495C753 91.2861 747.166 88.1675 742.587 83.5882C738.007 79.0088 734.889 73.1744 733.625 66.8226C732.362 60.4709 733.01 53.8871 735.489 47.9039C737.967 41.9207 742.164 36.8068 747.549 33.2088C752.933 29.6108 759.264 27.6904 765.74 27.6904C774.425 27.6904 782.753 31.1402 788.894 37.281C795.035 43.4217 798.484 51.7503 798.484 60.4346" fill="#96BE35"/>
<path d="M713.462 241.151C713.462 241.151 707.944 164.935 672.088 110.053L680.277 66.2174C680.277 66.2174 716.398 98.9726 737.918 152.608C737.918 152.608 800.659 78.953 891 53.2058L883.915 90.1216C883.915 90.1216 818.029 112.448 713.451 241.14" fill="#96BE35"/>
</svg>
