<svg width="809" height="461" viewBox="0 0 809 461" fill="none" xmlns="http://www.w3.org/2000/svg">
    <g fill="currentColor">
        <path d="M144.75 0.03L110.29 168.25L179.98 168.29L170.66 213.78L44.3604 213.72L88.1404 0L144.75 0.03Z"/>
        <path d="M283.53 0.100068L239.75 213.82L183.14 213.79L226.92 0.0700684L283.53 0.100068Z"/>
        <path d="M353.94 0.130098L343.77 161.19H344.38L400.2 0.160098L460.46 0.190098L369.81 213.88L296.77 213.85L294.6 0.100098L353.94 0.130098Z"/>
        <path d="M600.78 0.259941L591.46 45.7599L519.33 45.7299L511.85 82.2399L579.41 82.2799L570.46 125.98L502.89 125.94L494.19 168.45L569.05 168.49L559.73 213.98L428.26 213.91L472.05 0.189941L600.78 0.259941Z"/>
        <path d="M133.34 242.92C144.094 242.92 152.987 244.32 160.02 247.12C167.054 249.92 172.434 253.867 176.16 258.96C179.974 264.287 182.269 270.55 182.8 277.08C183.465 284.694 182.973 292.364 181.34 299.83C178.394 314.203 173.08 325.78 165.4 334.56C157.72 343.34 147.184 348.723 133.79 350.71L133.67 351.3C147.004 352.507 155.377 357.2 158.79 365.38C162.204 373.56 162.43 384.84 159.47 399.22L155.73 417.48L153.95 426.17C153.34 429.17 152.85 432 152.51 434.7C152.18 437.134 151.983 439.585 151.92 442.04C151.827 443.751 151.989 445.467 152.4 447.13C152.96 448.33 153.537 449.48 154.13 450.58C154.94 451.901 156.081 452.986 157.44 453.73L156.83 456.73H96.5702C95.6675 453.518 95.2727 450.184 95.4002 446.85C95.4638 443.045 95.7342 439.246 96.2102 435.47C96.6836 431.683 97.2269 428.043 97.8402 424.55C98.4502 421.07 98.9902 418.22 99.4402 416.02L102.38 401.65C103.457 396.708 104.176 391.695 104.53 386.65C104.737 382.65 104.317 379.507 103.27 377.22C102.35 375.063 100.629 373.346 98.4702 372.43C95.7842 371.44 92.9313 370.981 90.0702 371.08H75.1402L57.6002 456.62H0.990234L44.7702 242.9L133.34 242.92ZM94.1302 333.3C102.244 333.3 108.71 330.967 113.53 326.3C118.35 321.633 121.534 315.497 123.08 307.89C124.92 298.91 124.354 292.523 121.38 288.73C118.407 284.937 112.657 283.037 104.13 283.03H93.1302L82.8302 333.32L94.1302 333.3Z"/>
        <path d="M273.94 243L230.16 456.72L173.56 456.69L217.34 242.97L273.94 243Z" />
        <path d="M424.67 340.66L400.88 456.8H362.53L365.18 437.95H364.6C361.998 442.356 358.573 446.219 354.51 449.33C350.689 452.242 346.42 454.515 341.87 456.06C337.32 457.57 332.63 458.621 327.87 459.2C323.013 459.792 318.124 460.09 313.23 460.09C298.824 460.09 287.944 457.74 280.59 453.04C273.237 448.34 268.367 441.287 265.98 431.88C263.64 422.507 263.324 410.933 265.03 397.16C266.737 383.387 269.404 367.623 273.03 349.87C276.216 333.717 280.544 317.811 285.98 302.27C290.934 288.51 297.36 276.94 305.26 267.56C313.142 258.201 323.152 250.866 334.45 246.17C345.997 241.283 360.09 238.847 376.73 238.86C385.794 238.732 394.821 240.049 403.47 242.76C410.919 245.073 417.568 249.432 422.66 255.34C427.56 261.14 430.804 268.58 432.39 277.66C433.977 286.74 433.444 297.767 430.79 310.74H376.01C378.344 299.36 379.01 291.077 378.01 285.89C377.244 279.703 373.517 276.603 366.83 276.59C362.655 276.447 358.538 277.596 355.04 279.88C351.854 282.073 349.027 285.963 346.56 291.55C343.535 298.871 341.123 306.43 339.35 314.15C336.997 323.637 334.35 335.56 331.41 349.92C328.47 364.28 326.23 376.207 324.69 385.7C323.15 395.173 322.484 402.703 322.69 408.29C322.86 413.88 323.99 417.77 326.08 419.97C328.17 422.17 331.34 423.26 335.6 423.26C338.508 423.292 341.387 422.681 344.03 421.47C347.015 419.903 349.536 417.578 351.34 414.73C354.126 410.445 356.351 405.821 357.96 400.97C360.482 393.585 362.487 386.033 363.96 378.37H343.91L351.6 340.62L424.67 340.66Z"/>
        <path d="M524.4 243.13L508.34 321.56L543.03 321.57L559.1 243.14L615.7 243.17L571.92 456.89L515.32 456.86L533.34 368.86L498.65 368.84L480.62 456.85L424.01 456.82L467.8 243.1L524.4 243.13Z"/>
        <path d="M619.4 290.48L629.09 243.18L770.29 243.25L760.61 290.55L718 290.53L683.91 456.95L627.3 456.92L661.39 290.5L619.4 290.48Z"/>
    </g>
    <g fill="#F74057">
        <path d="M724.51 50.2301C724.51 56.0982 722.77 61.8346 719.51 66.7138C716.25 71.593 711.616 75.3959 706.194 77.6416C700.773 79.8872 694.807 80.4748 689.052 79.33C683.296 78.1851 678.01 75.3593 673.86 71.2099C669.711 67.0605 666.885 61.7738 665.74 56.0184C664.595 50.263 665.183 44.2973 667.429 38.8758C669.674 33.4544 673.477 28.8205 678.356 25.5604C683.236 22.3002 688.972 20.5601 694.84 20.5601C702.709 20.5601 710.256 23.686 715.82 29.2502C721.384 34.8144 724.51 42.3611 724.51 50.2301Z"/>
        <path d="M647.47 213.98C647.47 213.98 642.47 144.92 609.98 95.1902L617.4 55.4702C617.4 55.4702 650.13 85.1502 669.63 133.75C669.63 133.75 726.48 67.0102 808.34 43.6802L801.92 77.1302C801.92 77.1302 742.22 97.3602 647.46 213.97"/>
    </g>
</svg>
