<svg width="62" height="62" viewBox="0 0 62 62" fill="none" xmlns="http://www.w3.org/2000/svg">
    <g fill="currentColor">
        <path d="M22.1931 25.3748H31.035H39.8769C40.8373 25.3748 41.6151 24.5939 41.6151 23.6295V21.7275C41.6151 16.7393 37.6538 12.4312 32.2564 12.4312C35.1068 11.8614 37.2559 9.33645 37.2559 6.30584C37.2559 2.85648 34.4702 0.0605469 31.035 0.0605469C27.5999 0.0605469 24.8142 2.85648 24.8142 6.30584C24.8142 9.33645 26.9633 11.8614 29.8137 12.4312C24.4233 12.4312 20.455 16.7326 20.455 21.7275V23.6295C20.4551 24.5938 21.2327 25.3748 22.1931 25.3748Z" />
        <path d="M7.81276 30.245C7.92271 30.2651 8.03182 30.2748 8.13971 30.2748C8.99948 30.2748 9.76321 29.6584 9.92269 28.7788C10.3694 26.3141 11.2151 23.9192 12.4362 21.6609C13.6147 19.4816 15.0926 17.5245 16.8287 15.8441C17.5501 15.1458 17.5712 13.9924 16.8758 13.2679C16.1803 12.5435 15.0318 12.5223 14.3103 13.2206C12.3065 15.1601 10.603 17.4149 9.24723 19.9223C7.84218 22.5207 6.86823 25.2809 6.35249 28.1264C6.17315 29.1163 6.82693 30.0648 7.81276 30.245Z" />
        <path d="M49.6339 21.661C50.855 23.9194 51.7007 26.3141 52.1474 28.7789C52.3069 29.6586 53.0705 30.2748 53.9304 30.2748C54.0382 30.2748 54.1475 30.2652 54.2573 30.2451C55.2432 30.0649 55.897 29.1163 55.7175 28.1264C55.2018 25.2809 54.2278 22.5206 52.8227 19.9223C51.467 17.4149 49.7634 15.16 47.7597 13.2206C47.0382 12.5223 45.8897 12.5436 45.1942 13.268C44.4988 13.9925 44.52 15.1458 45.2413 15.8441C46.9776 17.5245 48.4554 19.4816 49.6339 21.661Z" />
        <path d="M38.365 44.1605C36.0245 44.933 33.5594 45.329 31.0351 45.3375C31.0024 45.3387 30.9686 45.3387 30.9359 45.3387C28.4672 45.3387 26.0481 44.9682 23.7487 44.2383C22.7931 43.9346 21.7746 44.4666 21.4722 45.4261C21.1699 46.3856 21.6996 47.4083 22.6552 47.7119C25.309 48.5548 28.0946 48.9823 30.9359 48.9823H31.0351C33.9454 48.9714 36.7914 48.5146 39.4973 47.6219C40.4492 47.3085 40.9681 46.2786 40.6548 45.3227C40.3427 44.367 39.317 43.8459 38.365 44.1605Z" />
        <path d="M11.8012 48.9959C14.6517 48.4259 16.8009 45.9002 16.8009 42.8705C16.8009 39.4212 14.0153 36.624 10.5801 36.624C7.14489 36.624 4.35925 39.4212 4.35925 42.8705C4.35925 45.9002 6.50843 48.4259 9.35897 48.9959C3.97321 48.9959 0 53.2929 0 58.2923V60.1943C0 61.1575 0.777785 61.9396 1.73818 61.9396H10.5801H19.422C20.3824 61.9396 21.1602 61.1575 21.1602 60.1943V58.2923C21.1602 53.314 17.2096 48.9959 11.8012 48.9959Z" />
        <path d="M52.641 48.9959C55.4916 48.4259 57.6408 45.9002 57.6408 42.8705C57.6408 39.4212 54.8551 36.624 51.4199 36.624C47.9835 36.624 45.1991 39.4212 45.1991 42.8705C45.1991 45.9002 47.3474 48.4259 50.1985 48.9959C44.8003 48.9959 40.8397 53.303 40.8397 58.2922V60.1942C40.8397 61.1574 41.6175 61.9395 42.5779 61.9395H51.4198H60.2617C61.2209 61.9395 61.9999 61.1574 61.9999 60.1942V58.2923C62 53.3036 58.0384 48.9959 52.641 48.9959Z" />
    </g>
</svg>