<svg width="55" height="52" viewBox="0 0 55 52" fill="none" xmlns="http://www.w3.org/2000/svg">
    <path d="M14 49V47.3333C14 46.4493 13.6629 45.6014 13.0627 44.9763C12.4626 44.3512 11.6487 44 10.8 44H5.2C4.35131 44 3.53737 44.3512 2.93726 44.9763C2.33714 45.6014 2 46.4493 2 47.3333V49" stroke="currentColor" stroke-width="2.3" stroke-linecap="round" stroke-linejoin="round" />
    <path d="M8 41C9.65685 41 11 39.6569 11 38C11 36.3431 9.65685 35 8 35C6.34315 35 5 36.3431 5 38C5 39.6569 6.34315 41 8 41Z" stroke="currentColor" stroke-width="2.3" stroke-linecap="round" stroke-linejoin="round" />
    <path d="M53 49V47.3333C53 46.4493 52.6629 45.6014 52.0627 44.9763C51.4626 44.3512 50.6487 44 49.8 44H44.2C43.3513 44 42.5374 44.3512 41.9373 44.9763C41.3371 45.6014 41 46.4493 41 47.3333V49" stroke="currentColor" stroke-width="2.3" stroke-linecap="round" stroke-linejoin="round" />
    <path d="M47 41C48.6569 41 50 39.6569 50 38C50 36.3431 48.6569 35 47 35C45.3431 35 44 36.3431 44 38C44 39.6569 45.3431 41 47 41Z" stroke="currentColor" stroke-width="2.3" stroke-linecap="round" stroke-linejoin="round" />
    <path d="M34 16V14.3333C34 13.4493 33.6629 12.6014 33.0627 11.9763C32.4626 11.3512 31.6487 11 30.8 11H25.2C24.3513 11 23.5374 11.3512 22.9373 11.9763C22.3371 12.6014 22 13.4493 22 14.3333V16" stroke="currentColor" stroke-width="2.3" stroke-linecap="round" stroke-linejoin="round" />
    <path d="M28 8C29.6569 8 31 6.65685 31 5C31 3.34315 29.6569 2 28 2C26.3431 2 25 3.34315 25 5C25 6.65685 26.3431 8 28 8Z" stroke="currentColor" stroke-width="2.3" stroke-linecap="round" stroke-linejoin="round" />
    <path d="M7.4488 30.9054C8.16428 30.9054 8.74425 30.3255 8.74425 29.61C8.74016 23.6174 11.4563 17.9468 16.1283 14.1941C16.6408 13.6948 16.6515 12.8747 16.1522 12.3622C15.7179 11.9164 15.0279 11.8425 14.509 12.1861C9.21921 16.4214 6.14417 22.8336 6.15334 29.61C6.15334 30.3255 6.73331 30.9054 7.4488 30.9054Z" fill="#9E9E9E" />
    <path d="M34.8133 48.3169C34.8031 48.3205 34.7929 48.3242 34.7829 48.3281C30.7264 49.6859 26.3382 49.6859 22.2817 48.3281C21.6023 48.1163 20.8793 48.4923 20.6624 49.1701C20.4163 49.8036 20.7305 50.5168 21.364 50.7629C21.389 50.7725 21.4141 50.7815 21.4397 50.7894C26.0403 52.3442 31.0243 52.3442 35.6248 50.7894C36.3114 50.5444 36.6829 49.8017 36.4669 49.1053C36.2281 48.4311 35.4877 48.078 34.8133 48.3169Z" fill="#9E9E9E" />
    <path d="M39.9003 13.481C45.1469 17.1747 48.2649 23.193 48.256 29.6094C48.256 30.3249 48.8359 30.9048 49.5514 30.9048C50.2669 30.9048 50.8469 30.3249 50.8469 29.6094C50.8289 22.3509 47.3068 15.548 41.39 11.3435C40.7998 10.9321 39.9878 11.077 39.5763 11.6673C39.165 12.2576 39.31 13.0696 39.9003 13.481Z" fill="#9E9E9E" />
</svg>
    