<svg width="82" height="58" viewBox="0 0 82 58" fill="none" xmlns="http://www.w3.org/2000/svg">
    <path d="M64.4772 29.5884C64.8657 28.891 64.6152 28.0108 63.9179 27.6224C63.2206 27.2339 62.3403 27.4843 61.9519 28.1817C61.5634 28.879 61.8138 29.7592 62.5112 30.1477C63.2085 30.5361 64.0888 30.2857 64.4772 29.5884Z" fill="currentColor" />
    <path d="M34.7254 13.3877C27.6555 11.4933 20.3626 15.7039 18.4683 22.7738C16.5739 29.8436 20.7845 37.1366 27.8543 39.0309C34.9242 40.9253 42.2172 36.7147 44.1115 29.6449C46.0059 22.575 41.7954 15.2821 34.7254 13.3877ZM28.6039 36.2335C23.0766 34.7525 19.7848 29.0508 21.2658 23.5235C22.7468 17.9962 28.4485 14.7044 33.9758 16.1854C39.5031 17.6665 42.7949 23.3681 41.3139 28.8954C39.8329 34.4227 34.1312 37.7145 28.6039 36.2335Z" fill="currentColor" />
    <path d="M80.3713 18.7778L55.5931 12.1385C54.8206 11.9315 54.0264 12.39 53.8194 13.1626L53.0373 16.0814L49.4728 15.1264L50.2549 12.2075C50.4619 11.4349 50.0035 10.6408 49.2309 10.4338L36.5321 7.03115C28.9599 5.00217 21.2174 7.64976 16.3824 13.1949C16.2042 13.1347 16.0244 13.0778 15.8415 13.0288C11.1902 11.7827 6.39207 14.5529 5.14573 19.2043C3.89938 23.8557 6.6696 28.6539 11.321 29.9002C11.5038 29.9492 11.6878 29.99 11.8723 30.0268C13.2869 37.2467 18.6683 43.4109 26.2407 45.4399C36.83 48.2773 47.7535 41.9708 50.5909 31.3814C50.73 30.8624 50.8484 30.3354 50.9457 29.8049L56.7845 30.03C57.5837 30.0607 58.2566 29.438 58.2875 28.6388C58.3183 27.8395 57.6951 27.1666 56.8963 27.1359L49.7611 26.8607C49.0041 26.8314 48.3525 27.3906 48.2665 28.1433C48.1708 28.9801 48.0117 29.8174 47.7935 30.6317C45.3694 39.6784 36.0373 45.0663 26.9905 42.6423C17.9437 40.2182 12.5557 30.8861 14.9798 21.8393C17.4038 12.7925 26.7359 7.40469 35.7827 9.82877L47.0826 12.8566L46.3004 15.7755C46.0934 16.5481 46.5519 17.3421 47.3245 17.5492L53.6865 19.2538C54.4589 19.4608 55.2532 19.0024 55.4602 18.2298L56.2423 15.3109L78.223 21.2006L76.4308 27.889L69.7167 27.6301C68.9175 27.5994 68.2446 28.2222 68.2138 29.0213C68.1829 29.8205 68.8049 30.493 69.605 30.5243L77.4744 30.8277C78.1502 30.8538 78.754 30.4087 78.929 29.7555L81.3952 20.5515C81.6023 19.7789 81.1439 18.9848 80.3713 18.7778ZM7.94331 19.9539C8.72546 17.0349 11.6004 15.2247 14.522 15.7041C13.5029 17.3339 12.7049 19.1388 12.1821 21.0899C11.6594 23.0407 11.448 25.0029 11.5156 26.9237C8.74586 25.8779 7.16119 22.8728 7.94331 19.9539Z" fill="currentColor" />
</svg>
    