<svg width="59" height="59" viewBox="0 0 59 59" fill="none" xmlns="http://www.w3.org/2000/svg">
    <g fill="currentColor">
        <path d="M42.0372 3.71826H46.0169V8.12667H42.0372V3.71826Z" />
        <path d="M49.4739 3.71826V11.5837H38.5802V3.71826H25.5347C16.4533 3.71826 8.8939 10.2299 7.26783 18.8386H0V25.7815V39.6672C0 48.277 7.00452 55.2815 15.6143 55.2815H20.8142V44.8816H15.6143C8.91073 44.8816 3.45703 39.4279 3.45703 32.7244V25.7815H7.26783C8.8939 34.3902 16.4533 40.9019 25.5347 40.9019C35.8026 40.9019 44.1265 32.578 44.1265 22.3101L59 14.8734V3.71826H49.4739ZM15.6143 48.3386H17.3572V51.8245H15.6143C10.0994 51.8245 5.4303 48.1334 3.94793 43.0918C6.81012 46.3092 10.9794 48.3386 15.6143 48.3386ZM25.5347 35.1937C18.4306 35.1937 12.651 29.4141 12.651 22.3101C12.651 15.206 18.4306 9.4264 25.5347 9.4264C32.6388 9.4264 38.4182 15.206 38.4182 22.3101C38.4182 29.4141 32.6388 35.1937 25.5347 35.1937Z" />
        <path d="M34.2557 25.9242C36.2496 21.1137 33.9664 15.5975 29.1559 13.6036C24.3453 11.6096 18.8292 13.8928 16.8353 18.7034C14.8413 23.5139 17.1245 29.03 21.9351 31.024C26.7456 33.0179 32.2617 30.7347 34.2557 25.9242Z" />
    </g>
</svg>