<svg width="22" height="22" viewBox="0 0 22 22" fill="none" xmlns="http://www.w3.org/2000/svg">
<path fill-rule="evenodd" clip-rule="evenodd" d="M11 0C10.1321 0 9.42857 0.703552 9.42857 1.57143V9.42857H1.57143C0.703553 9.42857 0 10.1321 0 11C0 11.8679 0.703551 12.5714 1.57143 12.5714H9.42857V20.4286C9.42857 21.2964 10.1321 22 11 22C11.8679 22 12.5714 21.2964 12.5714 20.4286V12.5714H20.4286C21.2964 12.5714 22 11.8679 22 11C22 10.1321 21.2964 9.42857 20.4286 9.42857H12.5714V1.57143C12.5714 0.703553 11.8679 0 11 0Z" fill="currentColor"/>
</svg>
