<svg width="23" height="16" viewBox="0 0 23 16" fill="none" xmlns="http://www.w3.org/2000/svg">
<path d="M2.46429 0C1.11304 0 0 1.084 0 2.4V13.6C0 14.916 1.11304 16 2.46429 16H20.5357C21.887 16 23 14.916 23 13.6V2.4C23 1.084 21.887 0 20.5357 0H2.46429ZM2.46429 1.6H20.5357C20.9998 1.6 21.3571 1.948 21.3571 2.4V13.6C21.3571 14.052 20.9998 14.4 20.5357 14.4H2.46429C2.00018 14.4 1.64286 14.052 1.64286 13.6V2.4C1.64286 1.948 2.00018 1.6 2.46429 1.6ZM4.15889 5.8L2.46429 10.2H3.49107L3.82457 9.2H5.75L6.0835 10.2H8.00893V6.9L9.24107 10.2H10.1397L11.3965 7V10.2H12.296V5.8H10.8314L9.70107 8.776L8.57325 5.8H6.98214V9.976L5.39021 5.8H4.15889ZM13.5281 5.8V10.2H17.1457L18.2751 8.776L19.4038 10.2H20.5357L18.8411 8L20.5357 5.8H19.3036L18.1741 7.1248L17.25 5.8H13.5281ZM4.72321 6.6752L5.28836 8.2248H4.15807L4.72321 6.6768V6.6752ZM14.4268 6.8H16.6857L17.6098 8L16.583 9.3248H14.4268V8.4504H16.4803V7.5504H14.4268V6.8Z" fill="#5E5E5E"/>
</svg>
