<svg width="36" height="36" viewBox="0 0 36 36" fill="none" xmlns="http://www.w3.org/2000/svg">
<g fill="currentColor">
    <path d="M28.738 3.17858C27.7638 2.31993 26.9238 1.5768 26.9238 0.452745C26.9189 0.204828 26.719 0.0049958 26.4711 0C25.8123 0 21.9468 4.14027 21.9468 6.94729C21.9458 9.45292 23.9762 11.4849 26.4819 11.4858C28.9875 11.4868 31.0195 9.45635 31.0204 6.95072C31.0204 6.94955 31.0204 6.94838 31.0204 6.94729C31.0204 5.19876 29.8089 4.12466 28.738 3.17858Z"/>
    <path d="M22.7708 14.0414C20.0075 11.5997 17.3816 9.29534 17.3816 5.77642C17.385 5.51781 17.1782 5.30525 16.9195 5.30182C16.9153 5.30174 16.9112 5.30174 16.907 5.30182C15.8141 5.30182 4.97949 16.4019 4.97949 24.0361C4.97832 30.6424 10.3329 35.9989 16.9392 36C23.5455 36.0012 28.902 30.6466 28.9032 24.0403C28.9032 24.0389 28.9032 24.0375 28.9032 24.0361C28.9156 19.4649 25.7933 16.7079 22.7708 14.0414ZM16.9538 32.5571C16.7098 32.5571 16.512 32.3593 16.512 32.1152C16.512 31.8712 16.7098 31.6734 16.9538 31.6734C20.795 31.67 23.9084 28.5579 23.9136 24.7168C23.9136 24.4728 24.1114 24.275 24.3554 24.275C24.5994 24.275 24.7972 24.4728 24.7972 24.7168C24.7921 29.0459 21.283 32.5536 16.9538 32.5571Z"/>
</g>
</svg>
