<svg width="16" height="16" viewBox="0 0 16 16" fill="none" xmlns="http://www.w3.org/2000/svg">
<path d="M7.58976 10.1827C8.33045 10.1801 9.94983 10.1741 9.93116 9.14403C9.91316 8.09067 8.35778 8.154 7.59976 8.18534C7.51509 8.18867 7.43975 8.19201 7.37842 8.19267L7.41309 10.1841C7.46309 10.1827 7.52309 10.1827 7.58976 10.1827Z" fill="#5E5E5E"/>
<path d="M7.51106 7.281C8.12908 7.28033 9.47778 7.279 9.46178 6.3423C9.44445 5.38428 8.14908 5.44095 7.51639 5.46895C7.44506 5.47228 7.38306 5.47495 7.33105 5.47561L7.36239 7.28167L7.51106 7.281Z" fill="#5E5E5E"/>
<path fill-rule="evenodd" clip-rule="evenodd" d="M6.06363 15.7608C10.3504 16.8295 14.6919 14.2207 15.7606 9.93529C16.8293 5.64917 14.2199 1.30771 9.93308 0.239677C5.64896 -0.829687 1.3075 1.77972 0.239466 6.06651C-0.829232 10.352 1.77951 14.6934 6.0643 15.7615L6.06363 15.7608ZM8.91838 4.4138C10.0878 4.49647 11.0184 4.83914 11.1404 5.90851C11.2311 6.6912 10.9111 7.16788 10.3918 7.44388C11.2585 7.63589 11.8085 8.13924 11.7218 9.29127C11.6145 10.7213 10.5564 11.1233 9.03772 11.2367L9.06305 12.7367L8.15903 12.7534L8.13303 11.2733C7.89902 11.2773 7.65901 11.28 7.41034 11.2787L7.43701 12.7654L6.53298 12.7814L6.50631 11.2787L6.25097 11.2807C6.12164 11.2813 5.99097 11.282 5.8603 11.2847L4.68293 11.3047L4.8436 10.222C4.8436 10.222 5.51295 10.2206 5.50095 10.2106C5.75696 10.2053 5.82163 10.0206 5.83563 9.90462L5.79496 7.53322L5.85963 7.53189H5.8903C5.85843 7.52824 5.82636 7.52668 5.79429 7.52722L5.76496 5.83384C5.72696 5.65117 5.60429 5.44049 5.23828 5.44716C5.24828 5.43383 4.58092 5.45849 4.58092 5.45849L4.56359 4.49313L5.81163 4.4718V4.47647C5.99897 4.47313 6.19164 4.46647 6.38698 4.45913L6.36164 2.97309L7.26567 2.95776L7.291 4.4138C7.53234 4.40513 7.77502 4.3958 8.01302 4.3918L7.98769 2.94509L8.89238 2.92909L8.91838 4.41513V4.4138Z" fill="#5E5E5E"/>
</svg>
