<svg width="35" height="35" viewBox="0 0 35 35" fill="none" xmlns="http://www.w3.org/2000/svg">
<g fill="currentColor">
    <path d="M17.49 4.61343C9.8611 -2.05916 0.161033 3.80357 0.00197244 11.7515C-0.0385616 13.777 0.54614 15.75 1.71001 17.569H9.25385L10.5956 15.3326C10.9853 14.6833 11.9281 14.6624 12.3398 15.3097L15.1709 19.7584L19.2976 11.0466C19.6575 10.2864 20.73 10.2623 21.127 10.9994L24.6644 17.569H33.2701C39.6449 7.60571 27.0461 -3.74457 17.49 4.61343Z"/>
    <path d="M23.1493 19.0803L20.2828 13.7568L16.2294 22.3141C15.8845 23.0421 14.8702 23.1054 14.4377 22.4256L11.5006 17.8102L10.7136 19.1217C10.5283 19.4306 10.1946 19.6195 9.83443 19.6195H3.33203C3.53586 19.8328 2.44951 18.7487 16.7669 32.9919C17.1668 33.3898 17.8132 33.3899 18.2131 32.9919C32.3102 18.9678 31.4446 19.8324 31.648 19.6195H24.0521C23.6748 19.6196 23.3282 19.4125 23.1493 19.0803Z"/>
</g>
</svg>
