<svg width="13" height="13" viewBox="0 0 13 13" fill="none" xmlns="http://www.w3.org/2000/svg">
    <path d="M10.8337 8.125V9.93056C10.8337 10.17 10.7322 10.3996 10.5516 10.5689C10.3711 10.7382 10.1261 10.8333 9.87073 10.8333H3.12996C2.87456 10.8333 2.62963 10.7382 2.44904 10.5689C2.26845 10.3996 2.16699 10.17 2.16699 9.93056V8.125" fill="white" />
    <path d="M10.8337 8.125V9.93056C10.8337 10.17 10.7322 10.3996 10.5516 10.5689C10.3711 10.7382 10.1261 10.8333 9.87073 10.8333H3.12996C2.87456 10.8333 2.62963 10.7382 2.44904 10.5689C2.26845 10.3996 2.16699 10.17 2.16699 9.93056V8.125" stroke="currentColor" stroke-width="1.5" stroke-linecap="round" stroke-linejoin="round" />
    <path d="M3.79132 4.87467L6.49966 7.58301L9.20801 4.87467" stroke="currentColor" stroke-width="1.5" stroke-linecap="round" stroke-linejoin="round" />
    <path d="M6.5 7.58301L6.5 2.16634" stroke="currentColor" stroke-width="1.5" stroke-linecap="round" stroke-linejoin="round" />
</svg>
    