<svg width="163" height="136" viewBox="0 0 163 136" fill="none" xmlns="http://www.w3.org/2000/svg">
    <g fill="currentColor" opacity=".1">
        <circle cx="47.5" cy="47.5" r="47.5"/>
        <circle cx="138.5" cy="107.5" r="24"/>
    </g>
    <g fill="#39393D">
        <path d="M82.0742 99.2624C82.5353 99.5848 82.6531 99.485 83.1875 99.485C83.8081 99.4853 84.4095 99.2694 84.8881 98.8743L110.192 77.9987C102.041 73.9294 93.1799 69.505 90.6302 68.231C88.6025 75.4704 82.9619 95.6511 82.0742 99.2624Z"/>
        <path d="M156.436 36.2578C146.422 40.7036 91.4258 65.6411 91.4258 65.6411C94.9883 67.4223 126.682 83.2443 126.682 83.2443C127.267 83.491 127.921 83.5211 128.526 83.3293C129.131 83.1375 129.648 82.7364 129.984 82.1978L156.703 39.4478C157.009 38.9585 157.148 38.3833 157.1 37.8083C157.052 37.2333 156.819 36.6893 156.436 36.2578Z"/>
        <path d="M89.1758 63.5237C89.1758 63.5237 90.6008 63.0784 90.6218 63.0721C93.238 61.8858 105.136 56.492 118.147 50.6021L74.1929 63.871L80.2516 95.6799C82.5483 87.1408 88.4927 65.954 88.7829 64.9204L89.1758 63.5237Z"/>
        <path d="M53.493 51.1089L73.8362 61.1879L156.442 36.2504C155.996 35.8051 155.534 35.2262 154.153 35.3749L54.4033 46.0624C53.8291 46.1239 53.2902 46.3698 52.8675 46.7632C52.4448 47.1567 52.1609 47.6765 52.0584 48.2448C51.9559 48.8131 52.0403 49.3993 52.2989 49.9157C52.5576 50.432 52.9765 50.8506 53.493 51.1089Z"/>
        <path d="M72.0613 99.5207C67.0613 100.354 62.7765 103.355 59.9991 107.97C59.4295 108.92 58.9346 109.913 58.5191 110.94C55.4349 112.014 52.7382 113.979 50.7694 116.584C45.6525 123.407 46.6464 132.373 46.6912 132.752C46.7324 133.1 46.8419 133.437 47.0134 133.743C47.1849 134.049 47.4149 134.319 47.6905 134.536C47.9661 134.753 48.2817 134.914 48.6194 135.009C48.9571 135.104 49.3103 135.132 49.6588 135.091C50.0072 135.05 50.3441 134.94 50.6502 134.769C50.9564 134.597 51.2258 134.367 51.443 134.092C51.6602 133.816 51.821 133.5 51.9162 133.163C52.0115 132.825 52.0392 132.472 51.998 132.123C51.9895 132.052 51.1964 124.922 55.0446 119.791C55.5949 119.057 56.2342 118.395 56.9479 117.819C56.8361 119.432 57.0223 121.051 57.4971 122.596C58.5793 125.842 61.6504 127.734 64.9659 127.196C68.273 126.658 71.61 123.665 71.61 118.188C71.61 114.608 69.609 111.804 66.2569 110.687C65.7892 110.532 65.3106 110.412 64.825 110.328C66.2618 108.102 68.7883 105.483 72.9399 104.792C73.6389 104.675 74.263 104.286 74.6749 103.709C75.0868 103.133 75.2527 102.416 75.1362 101.717C75.0197 101.018 74.6303 100.394 74.0536 99.9821C73.477 99.5702 72.7603 99.4042 72.0613 99.5207ZM66.2662 118.188C66.2662 120.684 65.1046 121.758 64.1098 121.92C63.6845 121.989 62.9148 121.95 62.5666 120.905C62.1527 119.664 62.1364 117.691 62.6396 115.52C63.291 115.482 63.944 115.562 64.5669 115.757C65.7421 116.148 66.2662 116.898 66.2662 118.188Z"/>
    </g>
</svg>
