<svg width="32" height="32" viewBox="0 0 32 32" fill="none" xmlns="http://www.w3.org/2000/svg">
<g fill="currentColor">
<path d="M21.7588 13.1934H10.2405V18.8703H21.7588V13.1934Z" />
<path d="M1.67259 11.6494H2.47168V20.021H1.67259C0.749075 20.0198 0.000501394 19.2716 -0.000354767 18.3478V13.3221C0.000786781 12.3986 0.749361 11.6503 1.67259 11.6494Z"/>
<path d="M5.60578 8.10938H8.7793V23.9541H5.60578C4.68226 23.953 3.93369 23.2047 3.93283 22.2812V9.78232C3.93369 8.8588 4.68226 8.11052 5.60578 8.10938Z" />
<path d="M28.0664 9.78232V22.2812C28.0656 23.2047 27.317 23.9533 26.3935 23.9541H23.2199V8.10938H26.3935C27.317 8.11052 28.0656 8.8588 28.0664 9.78232Z" />
<path d="M32 13.3224V18.3478C31.9991 19.2716 31.2506 20.0198 30.3271 20.021H29.528V11.6494H30.3271C31.2506 11.6503 31.9989 12.3988 32 13.3224Z" />
</g>
</svg>
