<svg width="19" height="18" viewBox="0 0 19 18" fill="none" xmlns="http://www.w3.org/2000/svg">
<path d="M17.25 14.5V15.4167C17.25 16.425 16.425 17.25 15.4167 17.25H2.58333C1.56583 17.25 0.75 16.425 0.75 15.4167V2.58333C0.75 1.575 1.56583 0.75 2.58333 0.75H15.4167C16.425 0.75 17.25 1.575 17.25 2.58333V3.5H9C7.9825 3.5 7.16667 4.325 7.16667 5.33333V12.6667C7.16667 13.675 7.9825 14.5 9 14.5H17.25ZM9 12.6667H18.1667V5.33333H9V12.6667ZM12.6667 10.375C11.9058 10.375 11.2917 9.76083 11.2917 9C11.2917 8.23917 11.9058 7.625 12.6667 7.625C13.4275 7.625 14.0417 8.23917 14.0417 9C14.0417 9.76083 13.4275 10.375 12.6667 10.375Z" fill="currentColor"/>
</svg>
