<svg width="20" height="24" viewBox="0 0 20 24" fill="none" xmlns="http://www.w3.org/2000/svg">
<path d="M18.5376 0.616601C18.1728 0.448509 17.7429 0.513919 17.4445 0.78282L15.8699 2.17697C15.8271 2.21509 15.7625 2.21486 15.7199 2.17651L13.5775 0.260392C13.19 -0.0867972 12.6035 -0.0867972 12.216 0.260392L10.0756 2.17475C10.0325 2.21322 9.96743 2.21322 9.92437 2.17475L7.78371 0.260392C7.39625 -0.0867405 6.80965 -0.0867405 6.42219 0.260392L4.27954 2.17651C4.23666 2.21486 4.17187 2.21503 4.12876 2.17691L2.55279 0.78282C2.13469 0.41101 1.49432 0.448509 1.12251 0.866611C0.955778 1.0541 0.864556 1.2968 0.866485 1.54766V22.4524C0.862741 23.0128 1.31397 23.4701 1.87435 23.4738C2.12539 23.4755 2.36808 23.3841 2.55563 23.2172L4.13017 21.8231C4.17301 21.785 4.23762 21.7852 4.28023 21.8235L6.42259 23.7397C6.81005 24.0869 7.39664 24.0869 7.78411 23.7397L9.92477 21.8253C9.96782 21.7868 10.0329 21.7868 10.076 21.8253L12.2166 23.7396C12.6041 24.0866 13.1907 24.0866 13.5781 23.7396L15.7209 21.8235C15.7638 21.7851 15.8286 21.785 15.8717 21.8231L17.4476 23.2172C17.8659 23.5888 18.5062 23.551 18.8779 23.1328C19.0443 22.9454 19.1354 22.703 19.1336 22.4524V1.54766C19.1389 1.14606 18.9045 0.77987 18.5376 0.616601ZM4.62242 8.14237H10.272C10.5226 8.14237 10.7258 8.34558 10.7258 8.59622C10.7258 8.84685 10.5226 9.05006 10.272 9.05006H4.62242C4.37179 9.05006 4.16858 8.84685 4.16858 8.59622C4.16858 8.34558 4.37179 8.14237 4.62242 8.14237ZM15.3777 15.8577H4.62242C4.37179 15.8577 4.16858 15.6545 4.16858 15.4038C4.16858 15.1532 4.37179 14.95 4.62242 14.95H15.3777C15.6283 14.95 15.8315 15.1532 15.8315 15.4038C15.8315 15.6545 15.6283 15.8577 15.3777 15.8577ZM15.3777 12.4539H4.62242C4.37179 12.4539 4.16858 12.2507 4.16858 12C4.16858 11.7494 4.37179 11.5462 4.62242 11.5462H15.3777C15.6283 11.5462 15.8315 11.7494 15.8315 12C15.8315 12.2507 15.6283 12.4539 15.3777 12.4539Z" fill="currentColor"/>
</svg>
