<svg width="23" height="22" viewBox="0 0 23 22" fill="none" xmlns="http://www.w3.org/2000/svg">
    <g fill="currentColor">
        <path d="M0 1.21784C0 0.561976 0.531685 0.0302899 1.18755 0.0302899H3.76058C4.41645 0.0302899 4.94813 0.561975 4.94813 1.21784V20.8124C4.94813 21.4683 4.41645 22 3.76058 22H1.18755C0.531685 22 0 21.4683 0 20.8124V1.21784Z"/>
        <path d="M6.43257 1.21784C6.43257 0.561976 6.96426 0.0302899 7.62012 0.0302899H10.1932C10.849 0.0302899 11.3807 0.561975 11.3807 1.21784V20.8124C11.3807 21.4683 10.849 22 10.1932 22H7.62012C6.96426 22 6.43257 21.4683 6.43257 20.8124V1.21784Z"/>
        <path d="M12.2818 2.16116C12.1121 1.52764 12.488 0.876459 13.1216 0.706708L15.6069 0.0407596C16.2404 -0.128991 16.8916 0.246967 17.0614 0.880486L22.1328 19.8074C22.3026 20.4409 21.9266 21.0921 21.2931 21.2619L18.8077 21.9278C18.1742 22.0976 17.5231 21.7216 17.3533 21.0881L12.2818 2.16116Z"/>
    </g>
</svg>
