<svg width="247" height="328" viewBox="0 0 247 328" fill="none" xmlns="http://www.w3.org/2000/svg">
<path d="M194.218 50.3141C194.218 60.2653 191.267 69.993 185.739 78.2671C180.21 86.5412 172.352 92.9901 163.158 96.7983C153.965 100.606 143.848 101.603 134.088 99.6615C124.328 97.7201 115.363 92.9281 108.327 85.8915C101.29 78.855 96.498 69.8899 94.5566 60.1299C92.6152 50.3699 93.6117 40.2534 97.4198 31.0597C101.228 21.866 107.677 14.0081 115.951 8.47947C124.225 2.95089 133.953 0 143.904 0C157.248 0 170.046 5.30093 179.481 14.7367C188.917 24.1724 194.218 36.97 194.218 50.3141Z" fill="#C4C4C4"/>
<path d="M63.5752 328C63.5752 328 55.0962 210.889 0 126.557L12.5827 59.2002C12.5827 59.2002 68.086 109.531 101.154 191.947C101.154 191.947 197.56 78.7696 336.377 39.2068L325.49 95.931C325.49 95.931 224.251 130.237 63.5582 327.983" fill="#C4C4C4"/>
</svg>
