<svg width="24" height="16" viewBox="0 0 24 16" fill="none" xmlns="http://www.w3.org/2000/svg">
<path d="M22 0H2C0.897 0 0 0.897 0 2V14C0 15.103 0.897 16 2 16H22C23.103 16 24 15.103 24 14V2C24 0.897 23.103 0 22 0ZM14.5 12C13.837 12 13.2011 11.7366 12.7322 11.2678C12.2634 10.7989 12 10.163 12 9.5C12 8.83696 12.2634 8.20107 12.7322 7.73223C13.2011 7.26339 13.837 7 14.5 7C15.0427 7.00125 15.5698 7.18119 16 7.512C15.396 7.968 15 8.685 15 9.5C15 10.315 15.396 11.032 16 11.488C15.5698 11.8188 15.0427 11.9987 14.5 12ZM18.5 12C17.837 12 17.2011 11.7366 16.7322 11.2678C16.2634 10.7989 16 10.163 16 9.5C16 8.83696 16.2634 8.20107 16.7322 7.73223C17.2011 7.26339 17.837 7 18.5 7C19.163 7 19.7989 7.26339 20.2678 7.73223C20.7366 8.20107 21 8.83696 21 9.5C21 10.163 20.7366 10.7989 20.2678 11.2678C19.7989 11.7366 19.163 12 18.5 12Z" fill="#5E5E5E"/>
</svg>
