<svg width="22" height="6" viewBox="0 0 22 6" fill="none" xmlns="http://www.w3.org/2000/svg">
<path d="M2.99999 0.333313C1.53333 0.333313 0.333328 1.53331 0.333328 2.99998C0.333328 4.46665 1.53333 5.66665 2.99999 5.66665C4.46666 5.66665 5.66666 4.46665 5.66666 2.99998C5.66666 1.53331 4.46666 0.333313 2.99999 0.333313ZM19 0.333313C17.5333 0.333313 16.3333 1.53331 16.3333 2.99998C16.3333 4.46665 17.5333 5.66665 19 5.66665C20.4667 5.66665 21.6667 4.46665 21.6667 2.99998C21.6667 1.53331 20.4667 0.333313 19 0.333313ZM11 0.333313C9.53333 0.333313 8.33333 1.53331 8.33333 2.99998C8.33333 4.46665 9.53333 5.66665 11 5.66665C12.4667 5.66665 13.6667 4.46665 13.6667 2.99998C13.6667 1.53331 12.4667 0.333313 11 0.333313Z" fill="currentColor"/>
</svg>
