<svg width="20" height="22" viewBox="0 0 20 22" fill="none" xmlns="http://www.w3.org/2000/svg">
<path d="M17.5833 2.24998H13.055C12.6 0.993313 11.4083 0.083313 10 0.083313C8.59167 0.083313 7.4 0.993313 6.945 2.24998H2.41667C1.225 2.24998 0.25 3.22498 0.25 4.41665V19.5833C0.25 20.775 1.225 21.75 2.41667 21.75H17.5833C18.775 21.75 19.75 20.775 19.75 19.5833V4.41665C19.75 3.22498 18.775 2.24998 17.5833 2.24998ZM10 2.24998C10.5958 2.24998 11.0833 2.73748 11.0833 3.33331C11.0833 3.92915 10.5958 4.41665 10 4.41665C9.40417 4.41665 8.91667 3.92915 8.91667 3.33331C8.91667 2.73748 9.40417 2.24998 10 2.24998ZM12.1667 17.4166H4.58333V15.25H12.1667V17.4166ZM15.4167 13.0833H4.58333V10.9166H15.4167V13.0833ZM15.4167 8.74998H4.58333V6.58331H15.4167V8.74998Z" fill="currentColor"/>
</svg>
