<svg width="24" height="24" viewBox="0 0 24 24" fill="none" xmlns="http://www.w3.org/2000/svg">
<g clip-path="url(#clip0)">
<path d="M19 16.8002H17.4C17.2409 16.8002 17.0883 16.737 16.9757 16.6245C16.8632 16.5119 16.8 16.3593 16.8 16.2002C16.8 16.0411 16.8632 15.8885 16.9757 15.7759C17.0883 15.6634 17.2409 15.6002 17.4 15.6002H19C19.2652 15.6002 19.5196 15.4948 19.7071 15.3073C19.8946 15.1198 20 14.8654 20 14.6002V9.4002C20 9.13498 19.8946 8.88062 19.7071 8.69309C19.5196 8.50555 19.2652 8.4002 19 8.4002H4.2C3.93478 8.4002 3.68043 8.50555 3.49289 8.69309C3.30536 8.88062 3.2 9.13498 3.2 9.4002V14.6002C3.2 14.8654 3.30536 15.1198 3.49289 15.3073C3.68043 15.4948 3.93478 15.6002 4.2 15.6002H5.8C5.95913 15.6002 6.11174 15.6634 6.22426 15.7759C6.33679 15.8885 6.4 16.0411 6.4 16.2002C6.4 16.3593 6.33679 16.5119 6.22426 16.6245C6.11174 16.737 5.95913 16.8002 5.8 16.8002H4.2C3.61652 16.8002 3.05695 16.5684 2.64437 16.1558C2.23179 15.7432 2 15.1837 2 14.6002V9.4002C2 9.11129 2.0569 8.82521 2.16747 8.55829C2.27803 8.29138 2.44008 8.04885 2.64437 7.84456C3.05695 7.43198 3.61652 7.2002 4.2 7.2002H19C19.5835 7.2002 20.1431 7.43198 20.5556 7.84456C20.9682 8.25714 21.2 8.81672 21.2 9.4002V14.6002C21.2 15.1837 20.9682 15.7432 20.5556 16.1558C20.1431 16.5684 19.5835 16.8002 19 16.8002Z" fill="black"/>
<path d="M15.8002 21.5998H7.4002C6.81672 21.5998 6.25714 21.368 5.84456 20.9554C5.43198 20.5429 5.2002 19.9833 5.2002 19.3998V13.3998C5.2002 13.2407 5.26341 13.0881 5.37593 12.9755C5.48845 12.863 5.64107 12.7998 5.8002 12.7998H17.4002C17.5593 12.7998 17.7119 12.863 17.8245 12.9755C17.937 13.0881 18.0002 13.2407 18.0002 13.3998V19.3998C18.0002 19.6887 17.9433 19.9748 17.8327 20.2417C17.7222 20.5086 17.5601 20.7511 17.3558 20.9554C17.1515 21.1597 16.909 21.3218 16.6421 21.4323C16.3752 21.5429 16.0891 21.5998 15.8002 21.5998ZM6.4002 13.9998V19.3998C6.4002 19.665 6.50555 19.9194 6.69309 20.1069C6.88062 20.2944 7.13498 20.3998 7.4002 20.3998H15.8002C16.0654 20.3998 16.3198 20.2944 16.5073 20.1069C16.6948 19.9194 16.8002 19.665 16.8002 19.3998V13.9998H6.4002Z" fill="black"/>
<path d="M14.9996 16.7996H8.19961C8.04048 16.7996 7.88787 16.7364 7.77535 16.6239C7.66282 16.5114 7.59961 16.3587 7.59961 16.1996C7.59961 16.0405 7.66282 15.8879 7.77535 15.7753C7.88787 15.6628 8.04048 15.5996 8.19961 15.5996H14.9996C15.1587 15.5996 15.3114 15.6628 15.4239 15.7753C15.5364 15.8879 15.5996 16.0405 15.5996 16.1996C15.5996 16.3587 15.5364 16.5114 15.4239 16.6239C15.3114 16.7364 15.1587 16.7996 14.9996 16.7996Z" fill="black"/>
<path d="M14.9996 19.2H8.19961C8.04048 19.2 7.88787 19.1368 7.77535 19.0243C7.66282 18.9117 7.59961 18.7591 7.59961 18.6C7.59961 18.4409 7.66282 18.2883 7.77535 18.1757C7.88787 18.0632 8.04048 18 8.19961 18H14.9996C15.1587 18 15.3114 18.0632 15.4239 18.1757C15.5364 18.2883 15.5996 18.4409 15.5996 18.6C15.5996 18.7591 15.5364 18.9117 15.4239 19.0243C15.3114 19.1368 15.1587 19.2 14.9996 19.2Z" fill="black"/>
<path d="M17.4002 8.40039C17.2411 8.40039 17.0885 8.33718 16.9759 8.22465C16.8634 8.11213 16.8002 7.95952 16.8002 7.80039V4.60039C16.8002 4.33517 16.6948 4.08082 16.5073 3.89328C16.3198 3.70575 16.0654 3.60039 15.8002 3.60039H7.4002C7.13498 3.60039 6.88062 3.70575 6.69309 3.89328C6.50555 4.08082 6.4002 4.33517 6.4002 4.60039V7.80039C6.4002 7.95952 6.33698 8.11213 6.22446 8.22465C6.11194 8.33718 5.95933 8.40039 5.8002 8.40039C5.64107 8.40039 5.48845 8.33718 5.37593 8.22465C5.26341 8.11213 5.2002 7.95952 5.2002 7.80039V4.60039C5.2002 4.01691 5.43198 3.45734 5.84456 3.04476C6.25714 2.63218 6.81672 2.40039 7.4002 2.40039H15.8002C16.0891 2.40039 16.3752 2.4573 16.6421 2.56786C16.909 2.67842 17.1515 2.84047 17.3558 3.04476C17.5601 3.24904 17.7222 3.49157 17.8327 3.75849C17.9433 4.0254 18.0002 4.31148 18.0002 4.60039V7.80039C18.0002 7.95952 17.937 8.11213 17.8245 8.22465C17.7119 8.33718 17.5593 8.40039 17.4002 8.40039Z" fill="black"/>
</g>
<defs>
<clipPath id="clip0">
<rect width="24" height="24" fill="white"/>
</clipPath>
</defs>
</svg>
