<svg width="22" height="22" viewBox="0 0 22 22" fill="none" xmlns="http://www.w3.org/2000/svg">
    <g fill="currentColor">
        <path d="M21.3167 8.14757C20.5156 7.47408 19.29 7.5543 18.5945 8.3836L18.1765 8.87808L21.139 11.3638L21.5381 10.8711C22.2245 10.0547 22.1377 8.83541 21.3167 8.14757Z"/>
        <path d="M12.95 15.062L12.7296 15.3229C12.5382 15.552 12.4004 15.8258 12.3312 16.116L11.732 18.6236C11.6753 18.8609 11.7578 19.1101 11.9447 19.2669C12.1266 19.4198 12.3832 19.4642 12.615 19.3651L14.981 18.3391C15.2548 18.2201 15.5003 18.037 15.6917 17.8098L15.9129 17.548L12.95 15.062Z"/>
        <path d="M17.3446 9.8623L13.7815 14.0781L16.7442 16.5641L20.3071 12.348L17.3446 9.8623Z"/>
        <path d="M16.1571 2.85766L13.7087 0.531285C13.4772 0.311844 13.1925 0.182594 12.8923 0.0986328V3.86725H16.7188C16.6388 3.4844 16.4437 3.12973 16.1571 2.85766Z"/>
        <path d="M11.0776 15.8164C11.1928 15.3343 11.4225 14.8779 11.741 14.4965L16.76 8.55761V5.15625H12.2483C11.892 5.15625 11.6038 4.86797 11.6038 4.51172V0H1.93579C0.869565 0 0.00219727 0.867367 0.00219727 1.93359V20.0664C0.00219727 21.1326 0.869565 22 1.93579 22H14.8264C15.8926 22 16.76 21.1326 16.76 20.0664V18.5428L16.6763 18.6418C16.3597 19.0189 15.9512 19.3229 15.4961 19.5212L13.1282 20.5478C12.4609 20.836 11.6883 20.7339 11.1166 20.2551C10.552 19.7811 10.3072 19.0416 10.4784 18.324L11.0776 15.8164ZM3.22485 3.86719H9.67017C10.0264 3.86719 10.3147 4.15546 10.3147 4.51172C10.3147 4.86797 10.0264 5.15625 9.67017 5.15625H3.22485C2.8686 5.15625 2.58032 4.86797 2.58032 4.51172C2.58032 4.15546 2.8686 3.86719 3.22485 3.86719ZM3.22485 7.77734H13.5374C13.8936 7.77734 14.1819 8.06562 14.1819 8.42188C14.1819 8.77813 13.8936 9.06641 13.5374 9.06641H3.22485C2.8686 9.06641 2.58032 8.77813 2.58032 8.42188C2.58032 8.06562 2.8686 7.77734 3.22485 7.77734ZM8.3811 16.8008H3.22485C2.8686 16.8008 2.58032 16.5125 2.58032 16.1562C2.58032 15.8 2.8686 15.5117 3.22485 15.5117H8.3811C8.73736 15.5117 9.02564 15.8 9.02564 16.1562C9.02564 16.5125 8.73736 16.8008 8.3811 16.8008ZM3.22485 12.9336C2.8686 12.9336 2.58032 12.6453 2.58032 12.2891C2.58032 11.9328 2.8686 11.6445 3.22485 11.6445H10.9592C11.3155 11.6445 11.6038 11.9328 11.6038 12.2891C11.6038 12.6453 11.3155 12.9336 10.9592 12.9336H3.22485Z"/>
    </g>
</svg>
