<svg width="20" height="20" viewBox="0 0 20 20" fill="none" xmlns="http://www.w3.org/2000/svg">
<path d="M19.4008 12.1917L17.5625 10.7542C17.5858 10.5325 17.6058 10.2734 17.6058 9.99918C17.6058 9.725 17.5866 9.46586 17.5625 9.24418L19.4025 7.80586C19.7442 7.53586 19.8375 7.05668 19.62 6.65754L17.7083 3.35C17.5042 2.97668 17.0567 2.785 16.6025 2.9525L14.4333 3.82332C14.0175 3.52332 13.5816 3.27 13.1308 3.0675L12.8008 0.76668C12.7466 0.33 12.3666 0 11.9175 0H8.08419C7.63501 0 7.25587 0.33 7.20251 0.76L6.87169 3.06918C6.43501 3.26586 6.00587 3.51586 5.57169 3.825L3.39669 2.95168C2.98915 2.79418 2.50165 2.97082 2.29915 3.3425L0.385009 6.65418C0.159189 7.03586 0.252509 7.53168 0.601689 7.80836L2.44001 9.24586C2.41083 9.52668 2.39669 9.77086 2.39669 10C2.39669 10.2292 2.41087 10.4734 2.44001 10.755L0.600009 12.1934C0.258329 12.4642 0.165829 12.9434 0.383329 13.3417L2.29501 16.6492C2.49919 17.0217 2.94251 17.215 3.40083 17.0467L5.57001 16.1759C5.98501 16.475 6.42083 16.7284 6.87169 16.9317L7.20169 19.2317C7.25583 19.67 7.63501 20 8.08501 20H11.9183C12.3675 20 12.7475 19.67 12.8008 19.24L13.1316 16.9317C13.5683 16.7342 13.9966 16.485 14.4317 16.175L16.6066 17.0483C16.7116 17.0891 16.8208 17.11 16.9333 17.11C17.2566 17.11 17.5541 16.9333 17.7041 16.6583L19.6241 13.3333C19.8375 12.9433 19.7442 12.4642 19.4008 12.1917ZM10.0008 13.3333C8.16251 13.3333 6.66751 11.8383 6.66751 10C6.66751 8.16168 8.16251 6.66668 10.0008 6.66668C11.8392 6.66668 13.3341 8.16168 13.3341 10C13.3341 11.8383 11.8392 13.3333 10.0008 13.3333Z" fill="currentColor"/>
</svg>
