<svg width="33" height="33" viewBox="0 0 33 33" fill="none" xmlns="http://www.w3.org/2000/svg">
    <g fill="currentColor">
        <path d="M22.9275 24.7999C16.5265 24.7999 11.3374 19.6107 11.3374 13.2097C11.3374 9.20967 13.3638 5.68286 16.446 3.59993C16.0888 3.57395 15.728 3.56055 15.3642 3.56055C7.23473 3.56055 0.644531 10.1508 0.644531 18.2802C0.644531 26.4097 7.23473 32.9999 15.3642 32.9999C21.8977 32.9999 27.4369 28.7432 29.36 22.8518C27.5195 24.0821 25.3075 24.7999 22.9275 24.7999Z"/>
        <path d="M28.3249 6.05905L31.9344 0H25.3302V1.93359H28.5319L24.9224 7.99264H32.3556V6.05905H28.3249Z"/>
        <path d="M22.7998 7.36426H16.8281V9.29785H19.3972L16.6118 13.9735H22.7363V12.0399H20.0144L22.7998 7.36426Z"/>
        <path d="M26.3981 18.3539L28.1611 15.3945H23.1715V17.3281H24.7586L22.9956 20.2875H28.2311V18.3539H26.3981Z"/>
    </g>
</svg>
