<svg width="37" height="37" viewBox="0 0 37 37" fill="none" xmlns="http://www.w3.org/2000/svg">
<path d="M21.4473 27.7584C23.4432 28.4419 25.2055 28.8773 27.7377 29.6554C26.7649 41.9468 15.142 37.0655 21.4473 27.7584ZM31.8248 16.4672C31.6937 12.7765 31.0437 7.93529 25.8658 8.69387C23.4385 9.32733 21.6451 11.9931 20.8016 16.5923C20.3383 19.121 20.6077 22.6705 21.1542 24.7983C21.6531 26.2977 21.4834 26.2055 22.0197 26.4903C24.0953 26.9579 26.1501 27.4755 28.2426 28.0033C30.3683 26.5021 32.1142 18.5325 31.8248 16.4672ZM15.8454 16.1839C16.3914 14.0559 16.6608 10.5064 16.1978 7.97793C15.3549 3.3785 13.5613 0.712344 11.1336 0.0793091C5.95566 -0.679271 5.30561 4.16192 5.17454 7.85274C4.88519 9.91773 6.63126 17.8878 8.75719 19.3887C10.8495 18.8609 12.904 18.3437 14.9803 17.8757C15.5159 17.5912 15.3462 17.6833 15.8454 16.1839ZM9.26145 21.0412C10.2339 33.3326 21.8568 28.4513 15.5516 19.1443C13.5557 19.8279 11.7935 20.2631 9.26145 21.0412Z" fill="currentColor"/>
</svg>
