<svg width="24" height="24" viewBox="0 0 24 24" fill="none" xmlns="http://www.w3.org/2000/svg">
    <path d="M4 6.55542H5.77778H20" stroke="currentColor" stroke-width="1.5" stroke-linecap="round" stroke-linejoin="round" />
    <path d="M8.4445 6.55556V4.77778C8.4445 4.30628 8.6318 3.8541 8.9652 3.5207C9.2986 3.1873 9.75078 3 10.2223 3H13.7778C14.2493 3 14.7015 3.1873 15.0349 3.5207C15.3683 3.8541 15.5556 4.30628 15.5556 4.77778V6.55556M18.2223 6.55556V19C18.2223 19.4715 18.035 19.9237 17.7016 20.2571C17.3682 20.5905 16.916 20.7778 16.4445 20.7778H7.55561C7.08411 20.7778 6.63193 20.5905 6.29853 20.2571C5.96513 19.9237 5.77783 19.4715 5.77783 19V6.55556H18.2223Z" stroke="currentColor" stroke-width="1.5" stroke-linecap="round" stroke-linejoin="round" />
    <path d="M10.2224 11V16.3333" stroke="currentColor" stroke-width="1.5" stroke-linecap="round" stroke-linejoin="round" />
    <path d="M13.7778 11V16.3333" stroke="currentColor" stroke-width="1.5" stroke-linecap="round" stroke-linejoin="round" />
</svg>
    