<svg width="43" height="47" viewBox="0 0 43 47" fill="none" xmlns="http://www.w3.org/2000/svg">
    <path d="M6.38481 43.258C5.72215 43.8927 4.86815 44.21 3.82281 44.21C2.77748 44.21 1.91881 43.8927 1.24681 43.258C0.584146 42.6233 0.252813 41.7413 0.252813 40.612V34.074H1.61081V40.57C1.61081 41.326 1.80215 41.9093 2.18481 42.32C2.57681 42.7307 3.12281 42.936 3.82281 42.936C4.52281 42.936 5.06415 42.7307 5.44681 42.32C5.82948 41.9093 6.02081 41.326 6.02081 40.57V34.074H7.39281V40.612C7.39281 41.7413 7.05681 42.6233 6.38481 43.258ZM10.8654 46.66H9.56336V37.266H10.8374V38.316C11.0334 37.9613 11.3274 37.672 11.7194 37.448C12.1114 37.224 12.5687 37.112 13.0914 37.112C14.062 37.112 14.818 37.4433 15.3594 38.106C15.91 38.7687 16.1854 39.6087 16.1854 40.626C16.1854 41.6527 15.9007 42.502 15.3314 43.174C14.7714 43.846 14.0107 44.182 13.0494 44.182C12.5547 44.182 12.116 44.0793 11.7334 43.874C11.3507 43.6687 11.0614 43.4073 10.8654 43.09V46.66ZM14.8414 40.626C14.8414 39.9447 14.6594 39.3847 14.2954 38.946C13.9407 38.498 13.46 38.274 12.8534 38.274C12.256 38.274 11.7707 38.498 11.3974 38.946C11.0334 39.3847 10.8514 39.9447 10.8514 40.626C10.8514 41.326 11.0334 41.9 11.3974 42.348C11.7707 42.7867 12.256 43.006 12.8534 43.006C13.4507 43.006 13.9314 42.7867 14.2954 42.348C14.6594 41.9 14.8414 41.326 14.8414 40.626ZM19.1782 44H17.8622V33.864H19.1782V44ZM22.8029 42.404C23.2135 42.824 23.7129 43.034 24.3009 43.034C24.8889 43.034 25.3835 42.824 25.7849 42.404C26.1955 41.9747 26.4009 41.382 26.4009 40.626C26.4009 39.8793 26.1955 39.296 25.7849 38.876C25.3835 38.4467 24.8889 38.232 24.3009 38.232C23.7129 38.232 23.2135 38.4467 22.8029 38.876C22.4015 39.296 22.2009 39.8793 22.2009 40.626C22.2009 41.382 22.4015 41.9747 22.8029 42.404ZM21.8229 38.078C22.4762 37.3967 23.3022 37.056 24.3009 37.056C25.2995 37.056 26.1209 37.3967 26.7649 38.078C27.4182 38.75 27.7449 39.5993 27.7449 40.626C27.7449 41.662 27.4229 42.5207 26.7789 43.202C26.1349 43.874 25.3089 44.21 24.3009 44.21C23.2929 44.21 22.4669 43.874 21.8229 43.202C21.1789 42.5207 20.8569 41.662 20.8569 40.626C20.8569 39.5993 21.1789 38.75 21.8229 38.078ZM29.0086 42.194C29.0086 41.6153 29.1953 41.1533 29.5686 40.808C29.9419 40.4533 30.4366 40.234 31.0526 40.15L32.8726 39.884C33.2179 39.8373 33.3906 39.6693 33.3906 39.38C33.3906 39.0253 33.2693 38.736 33.0266 38.512C32.7839 38.288 32.4199 38.176 31.9346 38.176C31.4866 38.176 31.1319 38.302 30.8706 38.554C30.6093 38.7967 30.4553 39.1233 30.4086 39.534L29.1486 39.24C29.2139 38.596 29.5079 38.0733 30.0306 37.672C30.5533 37.2613 31.1786 37.056 31.9066 37.056C32.8586 37.056 33.5633 37.2893 34.0206 37.756C34.4779 38.2133 34.7066 38.8013 34.7066 39.52V42.894C34.7066 43.2953 34.7346 43.664 34.7906 44H33.5026C33.4559 43.72 33.4326 43.4167 33.4326 43.09C33.2459 43.3887 32.9706 43.65 32.6066 43.874C32.2519 44.098 31.8039 44.21 31.2626 44.21C30.5999 44.21 30.0586 44.014 29.6386 43.622C29.2186 43.2207 29.0086 42.7447 29.0086 42.194ZM31.4446 43.104C32.0326 43.104 32.5039 42.9453 32.8586 42.628C33.2133 42.3107 33.3906 41.8067 33.3906 41.116V40.808L31.3326 41.116C31.0339 41.1627 30.7959 41.27 30.6186 41.438C30.4413 41.606 30.3526 41.8347 30.3526 42.124C30.3526 42.3853 30.4506 42.614 30.6466 42.81C30.8519 43.006 31.1179 43.104 31.4446 43.104ZM37.5407 40.612C37.5407 41.3213 37.7134 41.9 38.0587 42.348C38.4134 42.796 38.8987 43.02 39.5147 43.02C40.1027 43.02 40.5741 42.7913 40.9287 42.334C41.2834 41.8767 41.4607 41.2933 41.4607 40.584C41.4607 39.884 41.2881 39.3193 40.9427 38.89C40.5974 38.4607 40.1261 38.246 39.5287 38.246C38.9314 38.246 38.4507 38.4653 38.0867 38.904C37.7227 39.3427 37.5407 39.912 37.5407 40.612ZM41.4747 43.09V42.978C41.2974 43.3233 41.0267 43.6127 40.6627 43.846C40.3081 44.07 39.8834 44.182 39.3887 44.182C38.4274 44.182 37.6527 43.846 37.0647 43.174C36.4861 42.4927 36.1967 41.6387 36.1967 40.612C36.1967 39.632 36.4954 38.8013 37.0927 38.12C37.6901 37.4293 38.4554 37.084 39.3887 37.084C39.9394 37.084 40.3874 37.196 40.7327 37.42C41.0781 37.6347 41.3161 37.9007 41.4467 38.218V33.864H42.7487V42.754C42.7487 43.2113 42.7721 43.6267 42.8187 44H41.5447C41.4981 43.7387 41.4747 43.4353 41.4747 43.09Z" fill="currentColor" />
    <path d="M29 15V18.3333C29 18.7754 28.8127 19.1993 28.4793 19.5118C28.1459 19.8244 27.6937 20 27.2222 20H14.7778C14.3063 20 13.8541 19.8244 13.5207 19.5118C13.1873 19.1993 13 18.7754 13 18.3333V15" stroke="currentColor" stroke-width="1.5" stroke-linecap="round" stroke-linejoin="round" />
    <path d="M26 9L21 4L16 9" stroke="currentColor" stroke-width="1.5" stroke-linecap="round" stroke-linejoin="round" />
    <path d="M21 4V14" stroke="currentColor" stroke-width="1.5" stroke-linecap="round" stroke-linejoin="round" />
</svg>
    