<svg width="24" height="24" viewBox="0 0 24 24" fill="none" xmlns="http://www.w3.org/2000/svg">
<path d="M10.0909 5.21002C10.7167 5.06904 11.3573 4.99857 12 5.00002C18.3636 5.00002 22 12 22 12C21.4482 12.9937 20.7901 13.9292 20.0364 14.7913M13.9273 13.855C13.6776 14.1129 13.3765 14.3198 13.042 14.4632C12.7074 14.6067 12.3463 14.6839 11.9801 14.6901C11.6139 14.6963 11.2501 14.6315 10.9106 14.4994C10.571 14.3674 10.2625 14.1709 10.0035 13.9216C9.74452 13.6724 9.54036 13.3755 9.40319 13.0486C9.26602 12.7217 9.19866 12.3716 9.20512 12.0192C9.21158 11.6667 9.29174 11.3191 9.4408 10.9971C9.58986 10.6751 9.80478 10.3853 10.0727 10.145M17.4 17.1975C15.846 18.3376 13.9537 18.9693 12 19C5.63636 19 2 12 2 12C3.13081 9.97167 4.69921 8.19955 6.6 6.80252L17.4 17.1975Z" stroke="#5E5E5E" stroke-width="1.5" stroke-linecap="round" stroke-linejoin="round"/>
<path d="M2 2L22 22" stroke="#5E5E5E" stroke-width="1.5" stroke-linecap="round" stroke-linejoin="round"/>
</svg>

