<svg width="24" height="24" viewBox="0 0 24 24" fill="none" xmlns="http://www.w3.org/2000/svg">
    <path d="M2.18464 2.18457L2.18463 2.18459C2.04914 2.32005 1.96676 2.49962 1.95247 2.69067C1.93818 2.88172 1.99293 3.07156 2.10676 3.22566L2.10663 3.22575L2.10924 3.22875L2.18224 3.31275L2.18214 3.31283L2.18462 3.3153L6.17664 7.30831C4.22531 8.69329 2.83246 10.7304 2.25047 13.0528L2.2503 13.0535C2.20228 13.2581 2.23669 13.4734 2.34609 13.6528C2.4555 13.8322 2.63111 13.9614 2.83498 14.0124C3.03885 14.0634 3.2546 14.0322 3.4356 13.9254C3.61661 13.8186 3.74833 13.6449 3.8023 13.4418L3.80247 13.4411C4.31502 11.3984 5.57258 9.62169 7.32745 8.45913L9.07424 10.2059C8.36347 10.9668 7.97261 11.9728 7.9841 13.0152C7.99578 14.0739 8.42159 15.086 9.17033 15.8346C9.91906 16.5832 10.9312 17.0088 11.9899 17.0203C13.0323 17.0316 14.0383 16.6406 14.799 15.9297L20.6836 21.8153C20.8263 21.9584 21.018 22.0422 21.22 22.0498C21.422 22.0574 21.6194 21.9882 21.7725 21.8562C21.9256 21.7242 22.023 21.5391 22.0452 21.3382C22.0674 21.1373 22.0127 20.9354 21.8921 20.7731L21.8922 20.773L21.8897 20.7702L21.8167 20.6862L21.8168 20.6861L21.8143 20.6836L15.7268 14.5951L15.7278 14.593L15.7023 14.5676L14.5023 13.3696L14.5023 13.3696L11.7177 10.585H11.7198L11.6343 10.4996L8.77983 7.64807L8.78084 7.64604L8.75529 7.62055L7.62233 6.49059L7.62228 6.49055L3.31533 2.18459L3.31531 2.18457C3.16531 2.03476 2.96198 1.95061 2.74998 1.95061C2.53798 1.95061 2.33464 2.03476 2.18464 2.18457ZM9.09655 5.87708L9.01648 5.90121L9.07564 5.96032L10.3126 7.19632L10.3315 7.21518L10.3577 7.21C12.4847 6.78885 14.6921 7.20113 16.5237 8.36161C18.3553 9.5221 19.6709 11.342 20.1985 13.4451L20.1988 13.4462C20.254 13.6477 20.3859 13.8196 20.5663 13.9251C20.7467 14.0306 20.9612 14.0614 21.1639 14.0108C21.3667 13.9602 21.5416 13.8323 21.6513 13.6544C21.7609 13.4766 21.7966 13.2628 21.7508 13.059L21.7505 13.0578C21.2055 10.8844 19.9501 8.95544 18.1835 7.5771C16.417 6.19876 14.2406 5.45009 12 5.44995C10.995 5.44995 10.0202 5.59869 9.09655 5.87708ZM12.1974 8.96001L12.0679 8.95363L12.1596 9.04531L15.9606 12.8453L16.0523 12.937L16.0459 12.8075C15.9961 11.803 15.5747 10.8529 14.8634 10.1418C14.1522 9.43075 13.2019 9.00953 12.1974 8.96001ZM9.55229 13.024C9.54685 12.3986 9.78079 11.7945 10.205 11.3367L13.6673 14.8C13.2094 15.2241 12.6063 15.4581 11.9809 15.4526C11.3385 15.4471 10.724 15.1894 10.2698 14.7351C9.81554 14.2809 9.55787 13.6664 9.55229 13.024Z" fill="#2E2F31" stroke="#2E2F31" stroke-width="0.1" />
</svg>