<svg width="24" height="24" viewBox="0 0 24 24" fill="none" xmlns="http://www.w3.org/2000/svg">
    <path d="M2.27768 12.6045L2.22825 12.597L2.22824 12.5971L2.22821 12.5973L2.22812 12.5979L2.22782 12.6L2.22684 12.6075C2.22604 12.614 2.225 12.6233 2.22394 12.6351C2.22183 12.6587 2.21966 12.6923 2.21933 12.7332C2.21867 12.8146 2.22533 12.9259 2.25499 13.0437C2.31465 13.2806 2.4689 13.5471 2.84177 13.6457C2.95127 13.6749 3.06545 13.6822 3.17777 13.6672C3.29012 13.6522 3.39842 13.6152 3.49647 13.5583C3.59451 13.5014 3.68039 13.4258 3.74918 13.3357C3.81797 13.2456 3.86834 13.1429 3.89739 13.0333L3.89906 13.0338V13.0234L3.90968 12.9902L3.90969 12.9902L3.90994 12.9894C3.92756 12.9307 3.94629 12.8724 3.96612 12.8144C4.3184 11.8328 4.83478 10.9181 5.49325 10.1093C6.69124 8.64815 8.6961 7.175 12.0001 7.175C15.304 7.175 17.3073 8.64815 18.5069 10.1094C19.0142 10.7319 19.438 11.4181 19.7675 12.1505L19.7675 12.1506C19.891 12.4241 19.9988 12.7045 20.0904 12.9903L20.1029 13.0293L20.1042 13.0343L20.1042 13.0343L20.1046 13.0358C20.1666 13.2534 20.3117 13.4379 20.5085 13.5495C20.7052 13.6612 20.938 13.691 21.1566 13.6327C21.3752 13.5743 21.5621 13.4323 21.677 13.2375C21.7909 13.0443 21.825 12.8146 21.7724 12.5968V12.5878L21.7672 12.5773L21.7666 12.5761L21.763 12.5608L21.7631 12.5607L21.7623 12.5579C21.7321 12.455 21.6993 12.3529 21.664 12.2517L21.6639 12.2513C21.245 11.0767 20.6283 9.98246 19.8404 9.01579L19.8403 9.01567C18.375 7.22849 15.9095 5.45 12.0001 5.45C8.09224 5.45 5.62676 7.2285 4.15818 9.01563L4.15805 9.01579C3.37022 9.98246 2.75351 11.0767 2.33459 12.2513L2.33459 12.2513L2.33441 12.2518C2.31715 12.302 2.29792 12.3613 2.28306 12.4079L2.26473 12.4659L2.25945 12.4828L2.25804 12.4874L2.25767 12.4886L2.25758 12.4889L2.25755 12.4889L2.25755 12.489L2.25754 12.489L2.25752 12.489L2.25709 12.4905L2.22946 12.5913L2.22914 12.5912L2.22826 12.5969L2.27768 12.6045Z" fill="#2E2F31" stroke="#2E2F31" stroke-width="0.1" />
    <path d="M12 10.325C10.9093 10.325 9.86327 10.7583 9.09202 11.5295C8.32078 12.3008 7.8875 13.3468 7.8875 14.4375C7.8875 15.5282 8.32078 16.5742 9.09202 17.3455C9.86327 18.1167 10.9093 18.55 12 18.55C13.0907 18.55 14.1367 18.1167 14.908 17.3455C15.6792 16.5742 16.1125 15.5282 16.1125 14.4375C16.1125 13.3468 15.6792 12.3008 14.908 11.5295C14.1367 10.7583 13.0907 10.325 12 10.325ZM9.6125 14.4375C9.6125 13.8043 9.86404 13.197 10.3118 12.7493C10.7595 12.3015 11.3668 12.05 12 12.05C12.6332 12.05 13.2405 12.3015 13.6882 12.7493C14.136 13.197 14.3875 13.8043 14.3875 14.4375C14.3875 15.0707 14.136 15.678 13.6882 16.1257C13.2405 16.5735 12.6332 16.825 12 16.825C11.3668 16.825 10.7595 16.5735 10.3118 16.1257C9.86404 15.678 9.6125 15.0707 9.6125 14.4375Z" fill="#2E2F31" stroke="#2E2F31" stroke-width="0.1" />
</svg>
    