<svg width="26" height="23" viewBox="0 0 26 23" fill="none" xmlns="http://www.w3.org/2000/svg">
    <path d="M13.0001 5.16667C16.2201 5.16667 18.8334 7.78 18.8334 11C18.8334 11.7583 18.6817 12.47 18.4134 13.135L21.8201 16.5417C23.5817 15.0717 24.9701 13.17 25.8217 11C23.8034 5.87833 18.8217 2.25 12.9884 2.25C11.3551 2.25 9.79175 2.54167 8.34508 3.06667L10.8651 5.58667C11.5301 5.31833 12.2417 5.16667 13.0001 5.16667ZM1.33341 1.98167L3.99342 4.64167L4.53008 5.17833C2.59341 6.68333 1.07675 8.69 0.166748 11C2.18508 16.1217 7.16675 19.75 13.0001 19.75C14.8084 19.75 16.5351 19.4 18.1101 18.77L18.6001 19.26L22.0184 22.6667L23.5001 21.185L2.81508 0.5L1.33341 1.98167ZM7.78508 8.43333L9.59342 10.2417C9.53508 10.4867 9.50008 10.7433 9.50008 11C9.50008 12.9367 11.0634 14.5 13.0001 14.5C13.2567 14.5 13.5134 14.465 13.7584 14.4067L15.5667 16.215C14.7851 16.6 13.9217 16.8333 13.0001 16.8333C9.78008 16.8333 7.16675 14.22 7.16675 11C7.16675 10.0783 7.40008 9.215 7.78508 8.43333ZM12.8134 7.52333L16.4884 11.1983L16.5117 11.0117C16.5117 9.075 14.9484 7.51167 13.0117 7.51167L12.8134 7.52333Z" fill="currentColor"/>
</svg>
