<svg width="24" height="24" viewBox="0 0 24 24" fill="none" xmlns="http://www.w3.org/2000/svg">
    <path d="M2.27744 12.6045L2.228 12.597L2.22799 12.5971L2.22796 12.5973L2.22787 12.5979L2.22758 12.6L2.2266 12.6075C2.2258 12.614 2.22476 12.6233 2.2237 12.6351C2.22159 12.6587 2.21942 12.6923 2.21909 12.7332C2.21843 12.8146 2.22508 12.9259 2.25475 13.0437C2.31441 13.2806 2.46866 13.5471 2.84153 13.6457C2.95103 13.6749 3.0652 13.6822 3.17753 13.6672C3.28988 13.6522 3.39818 13.6152 3.49622 13.5583C3.59427 13.5014 3.68014 13.4258 3.74894 13.3357C3.81773 13.2456 3.86809 13.1429 3.89714 13.0333L3.89881 13.0338V13.0234L3.90943 12.9902L3.90944 12.9902L3.9097 12.9894C3.92732 12.9307 3.94605 12.8724 3.96588 12.8144C4.31816 11.8328 4.83453 10.9181 5.493 10.1093C6.69099 8.64815 8.69585 7.175 11.9998 7.175C15.3038 7.175 17.307 8.64815 18.5067 10.1094C19.014 10.7319 19.4377 11.4181 19.7672 12.1505L19.7672 12.1506C19.8907 12.4241 19.9986 12.7045 20.0902 12.9903L20.1027 13.0293L20.1039 13.0343L20.1039 13.0343L20.1044 13.0358C20.1664 13.2534 20.3114 13.4379 20.5082 13.5495C20.705 13.6612 20.9378 13.691 21.1564 13.6327C21.3749 13.5743 21.5618 13.4323 21.6768 13.2375C21.7906 13.0443 21.8248 12.8146 21.7722 12.5968V12.5878L21.7669 12.5773L21.7663 12.5761L21.7628 12.5608L21.7629 12.5607L21.762 12.5579C21.7318 12.455 21.6991 12.3529 21.6638 12.2517L21.6637 12.2513C21.2447 11.0767 20.628 9.98246 19.8402 9.01579L19.8401 9.01567C18.3747 7.22849 15.9092 5.45 11.9998 5.45C8.09199 5.45 5.62651 7.2285 4.15793 9.01563L4.1578 9.01579C3.36998 9.98246 2.75327 11.0767 2.33434 12.2513L2.33434 12.2513L2.33416 12.2518C2.31691 12.302 2.29768 12.3613 2.28282 12.4079L2.26448 12.4659L2.2592 12.4828L2.25779 12.4874L2.25743 12.4886L2.25733 12.4889L2.25731 12.4889L2.2573 12.489L2.2573 12.489L2.25727 12.489L2.25684 12.4905L2.22922 12.5913L2.22889 12.5912L2.22801 12.5969L2.27744 12.6045Z" fill="#2E2F31" stroke="#757575" stroke-width="0.1"/>
    <path d="M12 10.325C10.9093 10.325 9.86327 10.7583 9.09202 11.5295C8.32078 12.3008 7.8875 13.3468 7.8875 14.4375C7.8875 15.5282 8.32078 16.5742 9.09202 17.3455C9.86327 18.1167 10.9093 18.55 12 18.55C13.0907 18.55 14.1367 18.1167 14.908 17.3455C15.6792 16.5742 16.1125 15.5282 16.1125 14.4375C16.1125 13.3468 15.6792 12.3008 14.908 11.5295C14.1367 10.7583 13.0907 10.325 12 10.325ZM9.6125 14.4375C9.6125 13.8043 9.86404 13.197 10.3118 12.7493C10.7595 12.3015 11.3668 12.05 12 12.05C12.6332 12.05 13.2405 12.3015 13.6882 12.7493C14.136 13.197 14.3875 13.8043 14.3875 14.4375C14.3875 15.0707 14.136 15.678 13.6882 16.1257C13.2405 16.5735 12.6332 16.825 12 16.825C11.3668 16.825 10.7595 16.5735 10.3118 16.1257C9.86404 15.678 9.6125 15.0707 9.6125 14.4375Z" fill="#2E2F31" stroke="#757575" stroke-width="0.1"/>
</svg>
