<svg width="26" height="16" viewBox="0 0 26 16" fill="none" xmlns="http://www.w3.org/2000/svg">
<path d="M1.04 0C0.465738 0 0 0.456255 0 1.01911V14.9809C0 15.5437 0.465972 16 1.04 16H24.96C25.5343 16 26 15.5437 26 14.9809V1.01911C26 0.45628 25.534 0 24.96 0H1.04ZM15.5285 4.76831C16.1613 4.76831 16.6684 4.90527 16.9918 5.03264L16.7708 6.3949L16.6246 6.32245C16.3233 6.19508 15.9363 6.07251 15.4026 6.0812C14.7636 6.0812 14.4682 6.36051 14.4682 6.62183C14.4645 6.91628 14.8133 7.11047 15.3839 7.40127C16.3255 7.84994 16.7607 8.39394 16.7546 9.10907C16.7419 10.414 15.6282 11.2572 13.9124 11.2572C13.1805 11.2493 12.4753 11.0974 12.0941 10.922L12.3232 9.51432L12.5336 9.61465C13.0697 9.84935 13.4168 9.94428 14.0701 9.94428C14.5392 9.94428 15.0427 9.7518 15.0467 9.33042C15.0497 9.05526 14.8362 8.85908 14.2009 8.55096C13.5818 8.25022 12.761 7.74645 12.7701 6.84316C12.7798 5.62122 13.9157 4.76831 15.5285 4.76831ZM2.29936 4.96815H4.93431C5.28913 4.9813 5.5756 5.09325 5.6745 5.47055L6.24244 8.34316V8.34474L6.41306 9.20543L8.01286 4.96815H9.7435L7.17111 11.1704L5.44211 11.172L4.06575 6.16719C4.8847 6.59233 5.58191 7.08423 5.98569 7.76115C5.88159 7.54696 5.74441 7.30517 5.56889 7.06688C5.36448 6.78938 4.92302 6.43108 4.7385 6.27865C4.09552 5.74752 3.22231 5.31855 2.27906 5.09157L2.29936 4.96815ZM10.4317 4.97531H12.1241L11.0654 11.168H9.373L10.4317 4.97531ZM19.9908 4.97531H21.2729L22.6151 11.168H21.0763C21.0763 11.168 20.9236 10.4566 20.8739 10.2396C20.6321 10.2396 18.9404 10.2373 18.7501 10.2373C18.6857 10.4049 18.4007 11.168 18.4007 11.168H16.6595L19.1222 5.48966C19.2966 5.08614 19.5938 4.97531 19.9908 4.97531ZM20.1167 6.64092C20.0334 6.87126 19.8884 7.24324 19.8981 7.22691C19.8981 7.22691 19.3771 8.58843 19.2408 8.94189L20.6099 8.94107C20.5439 8.63401 20.228 7.16963 20.228 7.16963L20.1167 6.64092Z" fill="#5E5E5E"/>
</svg>
